<svg xmlns="http://www.w3.org/2000/svg" width="39.43" height="9.907" viewBox="0 0 39.43 9.907">
  <metadata><?xpacket begin="﻿" id="W5M0MpCehiHzreSzNTczkc9d"?>
<x:xmpmeta xmlns:x="adobe:ns:meta/" x:xmptk="Adobe XMP Core 5.6-c140 79.160451, 2017/05/06-01:08:21        ">
   <rdf:RDF xmlns:rdf="http://www.w3.org/1999/02/22-rdf-syntax-ns#">
      <rdf:Description rdf:about=""/>
   </rdf:RDF>
</x:xmpmeta>
                                                                                                    
                                                                                                    
                                                                                                    
                                                                                                    
                                                                                                    
                                                                                                    
                                                                                                    
                                                                                                    
                                                                                                    
                                                                                                    
                                                                                                    
                                                                                                    
                                                                                                    
                                                                                                    
                                                                                                    
                                                                                                    
                                                                                                    
                                                                                                    
                                                                                                    
                                                                                                    
                           
<?xpacket end="w"?></metadata>
<defs>
    <style>
      .cls-1 {
        fill: #53c2ea;
        fill-rule: evenodd;
      }
    </style>
  </defs>
  <path id="_-_copy" data-name="- copy" class="cls-1" d="M1085.54,982.06a1.291,1.291,0,0,1-.31.618v-0.1a0.25,0.25,0,0,0-.05.258c0.03,0.035.02,0.087-.05,0.154a0.769,0.769,0,0,1-.16-0.824,1.8,1.8,0,0,1,.36-0.72c-0.13-.068-0.22-0.068-0.26,0a0.661,0.661,0,0,1-.15.206,1.9,1.9,0,0,1,.78-0.876,5.36,5.36,0,0,1,1.19-.566,5.854,5.854,0,0,1,1.81-.617c0.72-.138,1.39-0.274,2.02-0.412a45.759,45.759,0,0,1,7.71-.618q4.08,0,8.28.154t8.28,0.361a69.712,69.712,0,0,0,7.6,0,1.889,1.889,0,0,1,.83-0.206,0.333,0.333,0,0,0,0,.36c0.07,0.1.17,0.087,0.31-.051,0,0.138-.01.189-0.05,0.154s-0.02.018,0.05,0.155h0.21a0.948,0.948,0,0,1,.26.514,3.475,3.475,0,0,0,.15.618,5.128,5.128,0,0,0-.15,1.648,5.423,5.423,0,0,1-.16,1.647,3.19,3.19,0,0,1-1.5,1.853,3.883,3.883,0,0,0-1.6,1.647,3.842,3.842,0,0,1-2.44.978,12.832,12.832,0,0,1-3.05-.051,2.479,2.479,0,0,0-1.14-.154,1.235,1.235,0,0,1-1.03-.361h-0.31a18.412,18.412,0,0,0-3.88-.875c-1.42-.171-2.92-0.361-4.51-0.566a5.1,5.1,0,0,1-1.86-.155,3.1,3.1,0,0,0-1.86.052c-0.35-.137-0.79-0.292-1.35-0.463a1.172,1.172,0,0,0-1.24.153c0-.136-0.03-0.169-0.1-0.1a0.3,0.3,0,0,1-.21.1,0.157,0.157,0,0,1-.05-0.2c0.03-.068.02-0.1-0.05-0.1a4.025,4.025,0,0,1-1.45-.206c0,0.069-.02.1-0.05,0.1s-0.06.035-.06,0.1a0.338,0.338,0,0,1-.36,0,0.341,0.341,0,0,0-.36,0c0-.206-0.03-0.309-0.1-0.309v0.206a0.83,0.83,0,0,0-.52.1c0-.343-0.1-0.412-0.31-0.206,0-.206-0.04-0.309-0.11-0.309v-0.1c-0.13,0-.2.036-0.2,0.1h0.2a0.446,0.446,0,0,1-.36.257c-0.17.036-.26-0.015-0.26-0.154,0.07,0,.11-0.136.11-0.412a1.5,1.5,0,0,1,.77,0,0.785,0.785,0,0,0,.68-0.1c0,0.139.03,0.206,0.1,0.206a0.691,0.691,0,0,1,.62-0.1,1.243,1.243,0,0,0,.83-0.1,0.332,0.332,0,0,0,.52.1,0.367,0.367,0,0,1,.51,0q0.105-.2-0.36-0.257a0.8,0.8,0,0,0-.67.154,1.03,1.03,0,0,0-.73-0.206,1.455,1.455,0,0,0-.82.206c0-.136-0.04-0.206-0.11-0.206,0,0.07-.01.1-0.05,0.1s-0.05.035-.05,0.1a2.43,2.43,0,0,0-1.24-.1,2.386,2.386,0,0,1-1.24-.1,1.944,1.944,0,0,1,1.08-.1,2.36,2.36,0,0,0,1.19-.1c0.07,0,.11.017,0.11,0.051s0.03,0.051.1,0.051a0.3,0.3,0,0,1,.41-0.1c0.21,0.069.31,0.035,0.31-.1q0,0.309.21,0.155a2.742,2.742,0,0,0,.31-0.258c-0.14.139-.08,0.207,0.16,0.207a0.689,0.689,0,0,0,.46-0.1h-0.2c-0.07-.067-0.07-0.1,0-0.1s0.1-.067.1-0.205c-0.07,0-.1.017-0.1,0.051s-0.04.052-.11,0.052a0.7,0.7,0,0,0-.46-0.052,2.9,2.9,0,0,1-.57.052c-0.14-.206-0.23-0.206-0.26,0s-0.05.274-.05,0.2a0.175,0.175,0,0,1-.06-0.2c0.04-.068.02-0.1-0.05-0.1s-0.1.069-.1,0.205a0.509,0.509,0,0,0-.73,0c0-.136-0.03-0.205-0.1-0.205h-0.77a0.768,0.768,0,0,0-.57.205c0-.136-0.04-0.205-0.11-0.205a0.477,0.477,0,0,1-.57.051c-0.24-.1-0.39-0.085-0.46.052,0.07-.206.03-0.309-0.11-0.309a0.934,0.934,0,0,1-.41-0.1,1.288,1.288,0,0,1,.72,0v0c0-.068.04-0.085,0.11-0.052s0.1-.016.1-0.154a10.149,10.149,0,0,0-1.03.052,3.5,3.5,0,0,1-1.04-.052,10.2,10.2,0,0,1,2.8-.206,2.45,2.45,0,0,1,1.03-.155,2.219,2.219,0,0,0,.83-0.051,0.759,0.759,0,0,0-1.04,0,2.085,2.085,0,0,0-1.13-.1c-0.42.069-.76,0.139-1.04,0.206a0.26,0.26,0,0,0-.1-0.257c-0.07-.034-0.11.017-0.11,0.154a0.612,0.612,0,0,0-.41.1c0-.137-0.03-0.206-0.1-0.206,0,0.139-.04.206-0.11,0.206,0-.206-0.07-0.24-0.2-0.1s-0.21.138-.21,0a2.99,2.99,0,0,1,.36-0.309,1.406,1.406,0,0,1,.67-0.1c0,0.139-.06.173-0.2,0.1s-0.21-.033-0.21.1c-0.14-.136-0.21-0.1-0.21.1,0,0.069.07,0.036,0.21-.1a0.132,0.132,0,0,0,.21,0,0.259,0.259,0,0,1,.31,0c-0.07-.136-0.05-0.206.05-0.206a0.307,0.307,0,0,0,.26-0.206,9.288,9.288,0,0,1-1.3.1,2.9,2.9,0,0,0-1.08.206,0.215,0.215,0,0,1-.16-0.257,0.187,0.187,0,0,1,.16-0.154l0.1,0.1a0.088,0.088,0,0,0-.1-0.1,0.292,0.292,0,0,1,.1-0.207l0.21,0.207a1.121,1.121,0,0,1,.83-0.258,0.832,0.832,0,0,0,.72-0.258,2.393,2.393,0,0,0-1.09.052,4.134,4.134,0,0,1-1.08.155c0.2,0,.24-0.068.1-0.207a5.82,5.82,0,0,0-1.14.258c-0.27.1-.62,0.224-1.03,0.36a1.52,1.52,0,0,1,.72-0.411,4,4,0,0,0,.83-0.309,0.159,0.159,0,0,1-.05-0.206c0.03-.068.02-0.1-0.05-0.1a0.309,0.309,0,0,0-.11.154,0.263,0.263,0,0,1-.1.155c-0.14-.137-0.22-0.171-0.26-0.1a0.691,0.691,0,0,1-.16.2,0.185,0.185,0,0,1-.05-0.2c0.04-.068.02-0.1-0.05-0.1-0.14.138-.17,0.241-0.1,0.308q-0.21-.1-0.21,0a0.089,0.089,0,0,1-.1.1c0-.137-0.04-0.206-0.11-0.206a0.606,0.606,0,0,0-.2.309q-0.1-.207-0.21,0t-0.21.1c-0.07-.136.02-0.222,0.26-0.257s0.3-.188.16-0.463a0.212,0.212,0,0,1-.26.154,0.466,0.466,0,0,0-.36.052,0.181,0.181,0,0,1,.2-0.206l0.11-.1a0.1,0.1,0,0,0-.11.1c-0.07-.137-0.05-0.207.05-0.207s0.13-.067.06-0.205a0.984,0.984,0,0,1-.37.257,0.338,0.338,0,0,0-.15.361,0.423,0.423,0,0,0-.31.1v-0.206a0.522,0.522,0,0,0,.26-0.1c0.1-.068.08-0.137-0.05-0.207,0.06,0,0,.1-0.21.31h0A0.922,0.922,0,0,0,1085.54,982.06Zm37.78-2.78c0,0.139.03,0.139,0.1,0C1123.35,979.144,1123.32,979.144,1123.32,979.28Zm0.2,0.1c0,0.139.04,0.139,0.11,0C1123.56,979.247,1123.52,979.247,1123.52,979.383Zm-24.21.1c0,0.069.07,0.1,0.2,0.1,0-.068-0.07-0.1-0.2-0.1h0Zm-3.52.309h0Zm-1.35.1v-0.1h-0.1v0.1h0.1Zm-0.83.1v-0.2c-0.13-.068-0.2-0.034-0.2.1s0.07,0.172.2,0.1h0Zm-0.46-.1c-0.04.139,0.02,0.139,0.15,0C1093.24,979.762,1093.18,979.762,1093.15,979.9Zm-0.42.1c0.04,0.069.13,0.036,0.26-.1C1092.79,979.9,1092.7,979.934,1092.73,980Zm28-.1a0.092,0.092,0,0,0,.1.1c0-.067-0.01-0.085-0.05-0.052s-0.05.018-.05-0.051h0Zm-19.25.412h0Zm-0.31-.052a0.3,0.3,0,0,1-.31-0.051,0.3,0.3,0,0,0,.21.1,0.889,0.889,0,0,1,.31.1C1101.38,980.276,1101.31,980.225,1101.17,980.258Zm-1.24.052h0.31c0.07-.067.03-0.1-0.11-0.1s-0.2.036-.2,0.1l-0.21-.1,0.21,0.206v-0.1h0Zm-0.42.052c0.07,0.035.11,0.017,0.11-.052l-0.21-.1A0.16,0.16,0,0,0,1099.51,980.362Zm-0.88.051a2.362,2.362,0,0,1,.57-0.1,2.9,2.9,0,0,1-.57-0.052,0.778,0.778,0,0,0-.57.155A0.8,0.8,0,0,0,1098.63,980.413Zm-0.67,0c0-.067-0.07-0.1-0.21-0.1a0.754,0.754,0,0,0-.31.052c-0.06.035-.08,0.051-0.05,0.051h0.57Zm-1.86,0h0Zm-0.11.1a0.1,0.1,0,1,0-.2,0h0.2Zm-0.82,0c-0.07-.137-0.11-0.137-0.11,0s0.04,0.138.11,0h0Zm-0.73,0h-0.1v0.206h0.1v-0.206Zm23.5,0.1,0.1,0.1a0.093,0.093,0,0,0-.1-0.1h0Zm-30.02.1c-0.07-.137-0.1-0.137-0.1,0s0.03,0.138.1,0h0Zm-0.21.1h0Zm0,0.206h0.11c0-.068-0.02-0.1-0.05-0.1s-0.06.035-.06,0.1h0Zm-0.72.309a0.294,0.294,0,0,0,.21-0.207c0-.067.07-0.1,0.2-0.1h-0.41v0.309h0Zm3.88-.207c-0.03.139,0.02,0.139,0.16,0C1090.96,981,1090.91,981,1090.87,981.133Zm-1.19,0h-0.1v0.1h0.1v-0.1Zm31.98,0c0,0.07.07,0.1,0.21,0.1,0,0.069-.07.035-0.21-0.1h0Zm-0.41.1h0.1c0-.068-0.02-0.1-0.05-0.1s-0.05.036-.05,0.1h0Zm-31.98.206c0.07,0,.1-0.1.1-0.31-0.14,0-.21.018-0.21,0.052s-0.03.052-.1,0.052v0.206c0.07,0.138.12,0.12,0.15-.052s0.06-.154.06,0.052h0Zm-0.73-.1c-0.07-.137-0.15-0.171-0.26-0.1s-0.08.138,0.06,0.206h0Zm0.42,0a0.134,0.134,0,0,0-.21,0,0.184,0.184,0,0,0,.21.206h0V981.34Zm-1.56,0h0.11c0-.068-0.04-0.068-0.11,0h0Zm24.53,0.206a0.288,0.288,0,0,0-.2-0.1c-0.14,0-.21.1-0.21,0.308a0.342,0.342,0,0,1,.46-0.051c0.18,0.1.3,0.018,0.37-.257q-0.21.207-.21,0C1112.07,981.581,1112,981.615,1111.93,981.546Zm-0.57,0c0.04,0,.06-0.034.06-0.1a0.134,0.134,0,0,0-.21,0,0.132,0.132,0,0,1-.21,0v0.1l0.1,0.1a0.134,0.134,0,0,1,.21,0h0C1111.31,981.581,1111.33,981.546,1111.36,981.546Zm1.92-.1h-0.11v0.206h0.11v-0.206Zm1.14,0.206-0.11-.1c-0.06,0-.1.069-0.1,0.2h0.21c-0.07-.067-0.07-0.1,0-0.1h0Zm-0.73-.1q-0.105.1-.15,0.051c-0.04-.034-0.06.018-0.06,0.154a0.183,0.183,0,0,0,.21-0.2h0Zm-1.08.2c0.1,0,.12-0.067.05-0.2a0.308,0.308,0,0,0-.21.1C1112.45,981.718,1112.5,981.751,1112.61,981.751Zm-8.96-.1c0-.068-0.01-0.1-0.05-0.1s-0.05.035-.05,0.1h0.1Zm-5.59-.1c0.07,0.138.14,0.154,0.21,0.051s0-.119-0.21-0.051h0Zm-1.34.1h0Zm-3.73,0c0,0.138.04,0.138,0.11,0C1093.03,981.512,1092.99,981.512,1092.99,981.649Zm-0.15.1a0.158,0.158,0,0,1,.05-0.2,0.823,0.823,0,0,1-.52.1c0.07,0,.11.069,0.11,0.206a0.343,0.343,0,0,1,.15-0.206c0.04,0,.05.069,0.05,0.206C1092.82,981.855,1092.87,981.82,1092.84,981.751Zm21.37-.1c-0.14-.137-0.19-0.137-0.16,0s0.09,0.138.16,0h0Zm-18.63.1c0.07-.067.12-0.085,0.16-0.051a0.252,0.252,0,0,0,.25-0.051c0-.068-0.08-0.1-0.25-0.1s-0.23.069-.16,0.2h0Zm-0.62-.1h0.21a0.134,0.134,0,0,0-.21,0h0Zm-0.1,0c0,0.138.03,0.138,0.1,0C1094.89,981.512,1094.86,981.512,1094.86,981.649Zm-2.85-.052c-0.17-.034-0.22.018-0.16,0.154h0.52A0.74,0.74,0,0,0,1092.01,981.6Zm2.12,0.154c-0.07-.136-0.1-0.136-0.1,0s0.03,0.139.1,0h0Zm-2.38.1v-0.206c-0.07,0-.1.069-0.1,0.206-0.14,0-.16.035-0.05,0.1s0.12,0.035.05-.1h0.1Zm-2.17-.1c-0.07-.136-0.11-0.136-0.11,0s0.04,0.139.11,0h0Zm15.52,0.1c0,0.069-.07.035-0.21-0.1,0,0.069.07,0.1,0.21,0.1h0Zm-7.55.1h-0.11c0,0.069.02,0.1,0.05,0.1s0.06-.033.06-0.1h0Zm10.14,0.1c0,0.139.03,0.139,0.1,0C1107.72,981.924,1107.69,981.924,1107.69,982.06Zm-13.46,0c-0.06-.136-0.1-0.136-0.1,0s0.04,0.139.1,0h0Zm17.39,0.1c-0.14,0-.2-0.033-0.2-0.1-0.14.07-.14,0.1,0,0.1s0.2,0.036.2,0.1C1111.76,982.2,1111.76,982.163,1111.62,982.163Zm-17.28-.1h0Zm-1.76,0c-0.14,0-.1.018,0.1,0.052s0.18,0.018-.1-0.052h0Zm18.63,0.1c0-.067-0.04-0.085-0.11-0.051a0.16,0.16,0,0,1-.2-0.052c0,0.275.1,0.309,0.31,0.1h0Zm-19.77,0a0.951,0.951,0,0,0,.93,0,0.8,0.8,0,0,0-.46-0.051,1.606,1.606,0,0,1-.47.051h0Zm20.85,0.052c0.04-.034.06-0.016,0.06,0.052a0.1,0.1,0,0,0-.11-0.1C1112.24,982.233,1112.26,982.25,1112.29,982.215Zm-11.22-.052c0,0.07.01,0.087,0.05,0.052s0.05-.016.05,0.052a0.094,0.094,0,0,0-.1-0.1h0Zm-1.25.1c0-.068-0.06-0.1-0.2-0.1,0-.067.07-0.033,0.2,0.1h0Zm-9.26.1a0.9,0.9,0,0,0,.67-0.206,3.087,3.087,0,0,1-.77.1,1.337,1.337,0,0,0-.57.1q-0.21-.1-0.21,0c0,0.069-.03.069-0.1,0,0,0.139.05,0.206,0.15,0.206s0.16-.067.16-0.206h0.67Zm6.57-.1h0Zm-0.31,0c0-.068-0.03-0.068-0.1,0h0.1Zm-2.48.308c0.07-.067.05-0.119-0.05-0.154s-0.12-.086-0.06-0.154c0,0.138-.05.2-0.15,0.2a0.31,0.31,0,0,0-.26.206,0.483,0.483,0,0,0,.26-0.1,0.192,0.192,0,0,1,.26,0h0Zm-1.35-.206c0-.067-0.07-0.1-0.2-0.1a0.286,0.286,0,0,0,.2.1h0Zm-0.1.155c0-.1-0.07-0.155-0.21-0.155v0.309C1092.82,982.678,1092.89,982.627,1092.89,982.524Zm-0.31-.155a0.135,0.135,0,0,0-.21,0,0.132,0.132,0,0,1-.21,0c-0.06.069,0,.1,0.21,0.1v0.206c0.14,0,.19-0.016.16-0.051a0.373,0.373,0,0,1-.05-0.258h0.1Zm2.38,0.206c0.14-.067.14-0.1,0-0.1s-0.14.036,0,.1h0Zm-0.36-.051c0.03-.034.05-0.016,0.05,0.051a0.1,0.1,0,0,0-.11-0.1C1094.54,982.541,1094.56,982.559,1094.6,982.524Zm-1.09.1c0.07,0.035.1-.017,0.1-0.155a0.82,0.82,0,0,0-.51.1c-0.07.139-.04,0.173,0.1,0.1s0.21-.068.21,0C1093.41,982.61,1093.44,982.593,1093.51,982.627Zm0.21-.052h0Zm-0.78,0c-0.03.139,0.02,0.139,0.16,0C1093.03,982.438,1092.98,982.438,1092.94,982.575Zm-0.67.1c0,0.139.03,0.139,0.1,0C1092.3,982.541,1092.27,982.541,1092.27,982.678Zm-0.11-.1h-0.1v0.1h0.1v-0.1Zm-0.2,0c-0.07,0-.11.018-0.11,0.052s-0.03.051-.1,0.051l0.1,0.1a0.1,0.1,0,0,0,.11-0.1h0v-0.1Zm6.41,0.309c0.21,0,.31-0.034.31-0.1a0.362,0.362,0,0,1-.31.052,0.378,0.378,0,0,0-.31.051h0.31Zm-1.65.1a0.555,0.555,0,0,0-.52-0.1,1,1,0,0,0-.57-0.051,4.136,4.136,0,0,1-.57.051,0.471,0.471,0,0,0,.52.1,0.981,0.981,0,0,1,.62,0v-0.1a0.823,0.823,0,0,0,.52.1h0Zm4.14-.1h0Zm-4.04.1a0.615,0.615,0,0,0,.42-0.1c0-.067-0.09-0.1-0.26-0.1s-0.23.069-.16,0.206h0Zm9.63,0.309h0Zm-10.66.1c0-.067-0.07-0.1-0.21-0.1,0,0.069.07,0.1,0.21,0.1h0Zm-0.73-.155a3.03,3.03,0,0,1-.52.052,0.523,0.523,0,0,0,.52.1,0.464,0.464,0,0,1,.42,0A0.357,0.357,0,0,0,1095.06,983.244Zm-0.67.207c0.04,0.035.05-.017,0.05-0.155-0.21,0-.27.069-0.21,0.2C1094.3,983.434,1094.36,983.416,1094.39,983.451Zm-0.67-.052a0.188,0.188,0,0,1,.15.052,0.421,0.421,0,0,0,.26.05c0-.136-0.05-0.188-0.15-0.154a0.232,0.232,0,0,1-.26-0.051v0.1h-0.11a0.373,0.373,0,0,0-.31-0.052,0.665,0.665,0,0,1-.31.052,0.237,0.237,0,0,0,.26.052,0.469,0.469,0,0,1,.36.05v-0.1h0.11Zm-0.93.1c0-.067-0.07-0.1-0.21-0.1,0-.067.07-0.034,0.21,0.1h0Zm23.8,0.207v-0.1h-0.31c0,0.069.1,0.1,0.31,0.1h0Zm-23.8-.1v0.206h0a0.127,0.127,0,0,0,0-.206h0Zm25.61,0.257c0.1-.034.12-0.119,0.05-0.257-0.07,0-.1.017-0.1,0.051s-0.03.052-.1,0.052C1118.25,983.846,1118.3,983.9,1118.4,983.862Zm-19.82.052q-0.21-.1-0.21.205a0.31,0.31,0,0,1,.21-0.1v-0.1Zm-0.67.205c0.1-.067.09-0.136-0.05-0.205C1097.79,984.119,1097.81,984.189,1097.91,984.119Zm3.78,0c0.07,0,.1-0.067.1-0.205l-0.1.205h0Zm-0.94-.205c-0.13.069-.15,0.12-0.05,0.154s0.12,0.087.05,0.154a0.1,0.1,0,0,0,.11-0.1,0.089,0.089,0,0,1,.1.1v-0.2h0c-0.14.138-.21,0.1-0.21-0.1h0Zm-1.13.205q0.105-.1.15,0c0.04,0.07.05,0.036,0.05-.1-0.2,0-.27.035-0.2,0.1h0Zm-2.13-.154c-0.1-.034-0.11.018-0.05,0.154-0.06.07-.12,0.087-0.15,0.052s-0.05.018-.05,0.155a0.177,0.177,0,0,0,.2-0.207C1097.58,984.052,1097.6,984,1097.49,983.965Zm5.65,0.361c0-.068.01-0.1,0.05-0.1s0.05-.033.05-0.1c0-.136-0.02-0.17-0.05-0.1a0.27,0.27,0,0,1-.26.1c0,0.07.03,0.087,0.1,0.052s0.07,0.018,0,.155h0.11Zm-0.83-.155c0.14,0.035.17-.016,0.1-0.154h-0.1C1102.17,984.086,1102.17,984.137,1102.31,984.171Zm-0.31-.052-0.11-.1c-0.13.069-.17,0.138-0.1,0.2s0.14,0.036.21-.1h0Zm-0.68,0c0.04-.067.13-0.067,0.26,0,0-.136-0.05-0.188-0.15-0.154a0.654,0.654,0,0,0-.26.154Q1101.275,984.224,1101.32,984.119Zm-0.77-.1c-0.14-.068-0.16-0.034-0.05.1s0.08,0.172-.06.1c0,0.069.11,0.1,0.31,0.1,0,0.069-.06.035-0.2-0.1v-0.2Zm5.59,0.2c0.14,0,.2-0.033.2-0.1h-0.2v0.1h0Zm-0.62,0v-0.1c-0.07-.067-0.11-0.051-0.11.052s0.04,0.12.11,0.051h0Zm-1.76-.1c-0.07.07-.11,0.07-0.11,0s-0.03-.067-0.1,0c0,0.07.02,0.087,0.05,0.052s0.05-.016.05,0.051h0.11v-0.1Zm-1.14,0h0Zm5.69,0.1c0,0.069.05,0.087,0.16,0.052s0.08-.085-0.06-0.155a0.093,0.093,0,0,0-.1.1h0Zm-0.67.1c0.1,0,.12-0.068.05-0.207-0.07,0-.1.018-0.1,0.052s-0.04.051-.11,0.051C1107.48,984.291,1107.53,984.326,1107.64,984.326Zm-0.57-.1a0.1,0.1,0,0,0-.11-0.1,0.1,0.1,0,0,0,.11.1h0Zm-0.42,0c0-.067-0.06-0.1-0.2-0.1,0,0.07.07,0.1,0.2,0.1h0Zm-1.34,0c-0.14-.067-0.17-0.051-0.1.052s0.1,0.087.1-.052h0Zm-1.04,0c0,0.139.04,0.139,0.11,0C1104.31,984.086,1104.27,984.086,1104.27,984.222Zm-6.72.1,0.2-.1c0-.067-0.06-0.085-0.2-0.051s-0.14.087,0,.155h0Zm4.45-.1a0.089,0.089,0,0,0,.1.1l-0.1-.1h0Zm2.89,0.206v-0.1c-0.06,0-.1.069-0.1,0.2a0.088,0.088,0,0,0,.1-0.1h0Zm4.04,0.309a0.591,0.591,0,0,0-.31-0.206c0,0.139.04,0.19,0.1,0.155a0.176,0.176,0,0,1,.21.051h0Zm-0.41-.051c0.14,0.1.14,0.087,0-.051C1108.38,984.567,1108.38,984.583,1108.52,984.686Zm1.24,0.051c-0.07-.136-0.1-0.136-0.1,0s0.03,0.139.1,0h0Zm-0.41-.1c0,0.069.06,0.1,0.2,0.1,0-.067-0.07-0.1-0.2-0.1h0Zm1.75,0.205c0-.136-0.03-0.17-0.1-0.1s-0.1.069-.1,0c-0.14,0-.16.018-0.05,0.052a0.815,0.815,0,0,0,.25.051h0Zm-1.03-.1h0Zm-10.25.1c0.07,0,.07-0.034,0-0.1-0.06,0-.06.036,0,0.1h0Zm-0.67,0c0.04,0.069.09,0.036,0.16-.1v0.1c0.13,0,.2-0.016.2-0.051s0.07-.016.21,0.051a0.3,0.3,0,0,0-.36-0.154,2.36,2.36,0,0,1-.47.051l0.11,0.1c-0.14.069-.18,0.121-0.11,0.155s0.11-.016.11-0.155C1099.06,984.773,1099.12,984.773,1099.15,984.84Zm-0.36-.1h-0.42c-0.06.139-.03,0.172,0.11,0.1s0.17-.034.1,0.1h0Zm2.59,0.1h-0.11l-0.1-.1v0.206c0.07-.067.1-0.085,0.1-0.051s0.04,0.017.11-.052h0Zm-0.63,0q0,0.1.21,0c0-.067-0.08-0.1-0.26-0.1s-0.22.069-.15,0.206C1100.69,984.806,1100.75,984.773,1100.75,984.84Zm-0.31,0c0.07,0,0-.034-0.2-0.1v0.206A0.312,0.312,0,0,1,1100.44,984.84Zm-0.31.1v-0.1c0-.136-0.03-0.17-0.1-0.1a0.29,0.29,0,0,0-.1.206h0.2Zm4.14-.1c0,0.069-.01.1-0.05,0.1s-0.05.036-.05,0.1c0.07,0,.1-0.067.1-0.206h0Zm-0.2.155a0.17,0.17,0,0,1-.11-0.155,0.093,0.093,0,0,0-.1.1v0.1h0.1C1104.1,985.046,1104.14,985.03,1104.07,985Zm-0.47.051c0.17,0,.23-0.067.16-0.206-0.14,0-.21.018-0.21,0.052s-0.07.017-.21-0.052A0.21,0.21,0,0,0,1103.6,985.046Zm-0.36-.1c0,0.139.03,0.139,0.1,0C1103.27,984.806,1103.24,984.806,1103.24,984.943Zm-0.1,0c0-.067-0.02-0.085-0.06-0.051s-0.05.017-.05-0.052a0.1,0.1,0,0,0,.11.1h0Zm-0.37.052c0.11,0.035.16,0.018,0.16-.052a0.3,0.3,0,0,1-.21-0.1C1102.65,984.909,1102.67,984.961,1102.77,985Zm-0.46-.052q-0.21-.205-0.21-0.051c0,0.1.07,0.121,0.21,0.051h0Zm-0.31,0c0,0.07-.07.036-0.21-0.1,0,0.069.07,0.1,0.21,0.1h0Zm-2.49,0c0,0.139.04,0.139,0.11,0C1099.55,984.806,1099.51,984.806,1099.51,984.943Zm5.28,0.1c0,0.07.05,0.1,0.16,0.1s0.15-.067.15-0.206c-0.14,0-.21.018-0.21,0.052s-0.03.051-.1,0.051h0Zm-0.31,0c0,0.139.04,0.139,0.1,0C1104.52,984.909,1104.48,984.909,1104.48,985.046Zm1.55,0.1h0.21c0.14,0,.21-0.033.21-0.1a0.351,0.351,0,0,0-.42.1h0Zm-0.2-.1c0,0.139.07,0.139,0.2,0C1105.9,984.909,1105.83,984.909,1105.83,985.046Zm0,0c-0.21,0-.31.036-0.31,0.1,0.2,0,.31-0.033.31-0.1h0Zm-0.52,0c0,0.139.03,0.139,0.1,0C1105.34,984.909,1105.31,984.909,1105.31,985.046Zm-0.1,0c0,0.139.03,0.139,0.1,0C1105.24,984.909,1105.21,984.909,1105.21,985.046Zm-10.92.052c-0.04.035-.06,0.018-0.06-0.052a0.093,0.093,0,0,0-.1.1h0.21C1094.34,985.082,1094.32,985.064,1094.29,985.1Zm12.88-.052h-0.1v0.206h0.21v-0.1a0.1,0.1,0,0,1-.11-0.1h0Zm-10.56.1-0.2-.1c0,0.07.07,0.1,0.2,0.1h0Zm-0.62,0c0,0.139.04,0.139,0.11,0C1096.03,985.013,1095.99,985.013,1095.99,985.149Zm-0.62,0a0.212,0.212,0,0,0-.2-0.154c-0.14-.034-0.18.018-0.11,0.154h0.31Zm-0.67-.1c-0.1,0-.12.036-0.05,0.1h0.21C1094.86,985.082,1094.8,985.046,1094.7,985.046Zm13.92,0.1h-0.41c0.07,0.139.12,0.172,0.15,0.1s0.12-.034.26,0.1v-0.206Zm-0.41.1c-0.07-.136-0.12-0.17-0.16-0.1s-0.12.069-.26,0h-0.1c-0.14-.136-0.19-0.119-0.16.052s0.09,0.154.16-.052h0.1a0.615,0.615,0,0,0,.42.1h0Zm-0.62-.1h-0.21v0.1h0.21v-0.1Zm-0.83,0h0Zm-9.94,0h0Zm11.8,0.1q0.21,0.208.21,0t-0.21,0h0Zm0.83,0.1c0,0.138.03,0.138,0.1,0C1109.48,985.218,1109.45,985.218,1109.45,985.355Zm0.93,0h0Zm3.1,0.1c-0.13-.067-0.15-0.052-0.05.051s0.12,0.087.05-.051h0Zm-0.82,0h0Zm1.96,0.1c-0.13-.137-0.2-0.137-0.2,0s0.07,0.138.2,0h0Zm-28.15-4.015c0.07,0.2.09,0.223,0.05,0.051s-0.05-.188-0.05-0.051h0Zm-0.62.412c0-.207.07-0.309,0.21-0.309a0.576,0.576,0,0,1-.21.309h0Zm4.56,0c0.13-.138.19-0.138,0.15,0s-0.09.138-.15,0h0Zm-1.45.1c-0.14,0-.21-0.033-0.21-0.1,0.14,0,.21.035,0.21,0.1h0Zm-0.31,0c0-.136.03-0.136,0.1,0C1088.68,982.2,1088.65,982.2,1088.65,982.06Zm-1.45.309v0.206h-0.11c-0.13-.137-0.1-0.206.11-0.206h0Zm3.46,0.361c-0.1-.1-0.08-0.155.06-0.155Q1090.825,982.884,1090.66,982.73Zm-1.39-.052c0-.137.03-0.137,0.1,0C1089.3,982.817,1089.27,982.817,1089.27,982.678Zm1.14,0c0.13-.137.19-0.137,0.15,0s-0.09.139-.15,0h0Zm-0.21,0q0-.205.21,0Q1090.2,982.887,1090.2,982.678Zm-1.14.1h-0.1v-0.1h0.1v0.1Zm1.24,0.206c0-.137.04-0.137,0.11,0C1090.34,983.125,1090.3,983.125,1090.3,982.987Zm-0.62-.1,0.21,0.206a0.259,0.259,0,0,0-.31,0,0.132,0.132,0,0,1-.21,0,0.292,0.292,0,0,1,.16-0.1,0.3,0.3,0,0,0,.15-0.1h0Zm0.52,0.567c-0.07-.1-0.04-0.119.1-0.052C1090.3,983.537,1090.27,983.553,1090.2,983.451Zm1.65,0.257c0,0.206-.03.309-0.1,0.309a0.089,0.089,0,0,0-.1-0.1,0.308,0.308,0,0,0-.21.1c0-.137-0.1-0.171-0.31-0.1s-0.24.035-.1-0.1c0,0.069.07,0.087,0.2,0.051a0.213,0.213,0,0,0,.21-0.154c0.14,0,.19.017,0.16,0.051s0.01,0.052.15,0.052a0.093,0.093,0,0,1,.1-0.1h0Zm4.97,0.309v0h0Zm-1.03.1v0.1a0.174,0.174,0,0,1-.16-0.1c-0.03-.067.02-0.1,0.16-0.1h0v0.1Zm-0.42.1c-0.07.069-.1,0.036-0.1-0.1C1095.41,984.119,1095.44,984.155,1095.37,984.222Zm1.45-.1h0Zm-0.21.1c0-.136.04-0.136,0.11,0C1096.65,984.361,1096.61,984.361,1096.61,984.222Zm-0.46,0c-0.03,0-.05-0.033-0.05-0.1h0.1C1096.2,984.189,1096.18,984.222,1096.15,984.222Zm-3.16,0-0.1-.1,0.1,0.1h0Zm-1.24.413c0-.207.14-0.258,0.41-0.155a2.286,2.286,0,0,0,.52.155h-0.93Zm2.23,0.36c-0.04-.171-0.06-0.189-0.06-0.052C1093.99,985.149,1094.01,985.167,1093.98,985Z" transform="translate(-1084.91 -978.562)"/>
</svg>
