<svg xmlns="http://www.w3.org/2000/svg" width="39.438" height="9.907" viewBox="0 0 39.438 9.907">
  <metadata><?xpacket begin="﻿" id="W5M0MpCehiHzreSzNTczkc9d"?>
<x:xmpmeta xmlns:x="adobe:ns:meta/" x:xmptk="Adobe XMP Core 5.6-c140 79.160451, 2017/05/06-01:08:21        ">
   <rdf:RDF xmlns:rdf="http://www.w3.org/1999/02/22-rdf-syntax-ns#">
      <rdf:Description rdf:about=""/>
   </rdf:RDF>
</x:xmpmeta>
                                                                                                    
                                                                                                    
                                                                                                    
                                                                                                    
                                                                                                    
                                                                                                    
                                                                                                    
                                                                                                    
                                                                                                    
                                                                                                    
                                                                                                    
                                                                                                    
                                                                                                    
                                                                                                    
                                                                                                    
                                                                                                    
                                                                                                    
                                                                                                    
                                                                                                    
                                                                                                    
                           
<?xpacket end="w"?></metadata>
<defs>
    <style>
      .cls-1 {
        fill: #53c2ea;
        fill-rule: evenodd;
      }
    </style>
  </defs>
  <path id="_-" data-name="-" class="cls-1" d="M516.459,982.06a1.283,1.283,0,0,0,.311.618v-0.1a0.274,0.274,0,0,1,.052.258c-0.036.035-.018,0.087,0.051,0.154a0.768,0.768,0,0,0,.156-0.824,1.748,1.748,0,0,0-.363-0.72c0.138-.068.223-0.068,0.259,0a0.778,0.778,0,0,0,.155.206,1.9,1.9,0,0,0-.776-0.876,5.49,5.49,0,0,0-1.19-.566,5.955,5.955,0,0,0-1.811-.617q-1.087-.207-2.019-0.412a45.854,45.854,0,0,0-7.71-.618q-4.091,0-8.28.154t-8.28.361a69.84,69.84,0,0,1-7.607,0,1.852,1.852,0,0,0-.828-0.206,0.342,0.342,0,0,1,0,.36c-0.069.1-.173,0.087-0.31-0.051,0,0.138.016,0.189,0.052,0.154s0.016,0.018-.052.155h-0.207a0.914,0.914,0,0,0-.259.514,4.365,4.365,0,0,1-.155.618,5.4,5.4,0,0,1,.155,1.648,5.265,5.265,0,0,0,.155,1.647,3.229,3.229,0,0,0,1.5,1.853,3.9,3.9,0,0,1,1.6,1.647,3.847,3.847,0,0,0,2.432.978,12.854,12.854,0,0,0,3.054-.051,2.489,2.489,0,0,1,1.138-.154,1.249,1.249,0,0,0,1.035-.361h0.311a18.379,18.379,0,0,1,3.881-.875q2.12-.257,4.5-0.566a5.119,5.119,0,0,0,1.863-.155,3.113,3.113,0,0,1,1.863.052q0.516-.206,1.345-0.463a1.173,1.173,0,0,1,1.242.153c0-.136.034-0.169,0.1-0.1a0.292,0.292,0,0,0,.207.1,0.167,0.167,0,0,0,.051-0.2c-0.035-.068-0.017-0.1.052-0.1a4.038,4.038,0,0,0,1.449-.206c0,0.069.016,0.1,0.052,0.1s0.052,0.035.052,0.1a0.341,0.341,0,0,0,.362,0,0.345,0.345,0,0,1,.362,0c0-.206.034-0.309,0.1-0.309v0.206a0.829,0.829,0,0,1,.517.1c0-.343.1-0.412,0.31-0.206,0-.206.035-0.309,0.1-0.309v-0.1c0.137,0,.207.036,0.207,0.1h-0.207a0.473,0.473,0,0,0,.362.257c0.172,0.036.259-.015,0.259-0.154-0.07,0-.1-0.136-0.1-0.412a1.525,1.525,0,0,0-.777,0,0.77,0.77,0,0,1-.672-0.1c0,0.139-.036.206-0.1,0.206a0.693,0.693,0,0,0-.621-0.1,1.236,1.236,0,0,1-.828-0.1,0.329,0.329,0,0,1-.517.1,0.377,0.377,0,0,0-.518,0q-0.1-.2.362-0.257a0.8,0.8,0,0,1,.673.154,1.019,1.019,0,0,1,.725-0.206,1.49,1.49,0,0,1,.828.206c0-.136.033-0.206,0.1-0.206,0,0.07.016,0.1,0.052,0.1s0.052,0.035.052,0.1a2.438,2.438,0,0,1,1.242-.1,2.4,2.4,0,0,0,1.241-.1,1.972,1.972,0,0,0-1.086-.1,2.362,2.362,0,0,1-1.19-.1c-0.07,0-.1.017-0.1,0.051s-0.036.051-.1,0.051a0.3,0.3,0,0,0-.414-0.1c-0.207.069-.311,0.035-0.311-0.1q0,0.309-.207.155a2.571,2.571,0,0,1-.31-0.258c0.137,0.139.085,0.207-.156,0.207a0.7,0.7,0,0,1-.465-0.1h0.207c0.067-.067.067-0.1,0-0.1s-0.1-.067-0.1-0.205c0.068,0,.1.017,0.1,0.051s0.034,0.052.1,0.052a0.714,0.714,0,0,1,.466-0.052,2.784,2.784,0,0,0,.569.052c0.138-.206.223-0.206,0.259,0s0.052,0.274.052,0.2a0.167,0.167,0,0,0,.051-0.2c-0.035-.068-0.018-0.1.052-0.1s0.1,0.069.1,0.205a0.5,0.5,0,0,1,.724,0c0-.136.034-0.205,0.1-0.205h0.776a0.778,0.778,0,0,1,.569.205c0-.136.034-0.205,0.1-0.205a0.48,0.48,0,0,0,.57.051c0.241-.1.4-0.085,0.465,0.052-0.069-.206-0.035-0.309.1-0.309a0.924,0.924,0,0,0,.414-0.1,1.307,1.307,0,0,0-.725,0v0c0-.068-0.035-0.085-0.1-0.052s-0.1-.016-0.1-0.154a10.3,10.3,0,0,1,1.036.052,3.462,3.462,0,0,0,1.034-.052,10.148,10.148,0,0,0-2.794-.206,2.469,2.469,0,0,0-1.035-.155,2.206,2.206,0,0,1-.828-0.051,0.753,0.753,0,0,1,1.035,0,2.116,2.116,0,0,1,1.138-.1c0.414,0.069.759,0.139,1.035,0.206a0.261,0.261,0,0,1,.1-0.257c0.068-.034.1,0.017,0.1,0.154a0.609,0.609,0,0,1,.414.1c0-.137.034-0.206,0.1-0.206,0,0.139.034,0.206,0.1,0.206,0-.206.068-0.24,0.207-0.1s0.207,0.138.207,0a2.647,2.647,0,0,0-.362-0.309,1.416,1.416,0,0,0-.673-0.1c0,0.139.068,0.173,0.208,0.1s0.206-.033.206,0.1c0.138-.136.207-0.1,0.207,0.1,0,0.069-.069.036-0.207-0.1a0.128,0.128,0,0,1-.206,0,0.261,0.261,0,0,0-.311,0c0.068-.136.052-0.206-0.052-0.206a0.3,0.3,0,0,1-.259-0.206,9.231,9.231,0,0,0,1.294.1,2.925,2.925,0,0,1,1.087.206,0.211,0.211,0,0,0,.155-0.257,0.18,0.18,0,0,0-.155-0.154l-0.1.1a0.091,0.091,0,0,1,.1-0.1,0.307,0.307,0,0,0-.1-0.207l-0.207.207a1.13,1.13,0,0,0-.828-0.258,0.831,0.831,0,0,1-.724-0.258,2.378,2.378,0,0,1,1.087.052,4.131,4.131,0,0,0,1.086.155c-0.207,0-.242-0.068-0.1-0.207a5.693,5.693,0,0,1,1.138.258c0.275,0.1.621,0.224,1.035,0.36a1.541,1.541,0,0,0-.724-0.411,3.939,3.939,0,0,1-.828-0.309,0.17,0.17,0,0,0,.052-0.206c-0.036-.068-0.018-0.1.051-0.1a0.3,0.3,0,0,1,.1.154,0.279,0.279,0,0,0,.1.155c0.138-.137.224-0.171,0.259-0.1a0.759,0.759,0,0,0,.155.2,0.168,0.168,0,0,0,.052-0.2c-0.035-.068-0.018-0.1.052-0.1q0.206,0.207.1,0.308,0.207-.1.207,0a0.092,0.092,0,0,0,.1.1c0-.137.034-0.206,0.1-0.206a0.58,0.58,0,0,1,.207.309c0.068-.138.138-0.138,0.207,0s0.138,0.172.207,0.1c0.068-.136-0.017-0.222-0.258-0.257s-0.295-.188-0.156-0.463a0.209,0.209,0,0,0,.259.154,0.478,0.478,0,0,1,.362.052,0.183,0.183,0,0,0-.207-0.206l-0.1-.1a0.092,0.092,0,0,1,.1.1c0.068-.137.052-0.207-0.051-0.207s-0.122-.067-0.052-0.205a1,1,0,0,0,.362.257,0.334,0.334,0,0,1,.155.361,0.429,0.429,0,0,1,.311.1v-0.206a0.5,0.5,0,0,1-.259-0.1c-0.1-.068-0.087-0.137.052-0.207-0.07,0,0,.1.207,0.31h0A0.928,0.928,0,0,1,516.459,982.06Zm-37.776-2.78c0,0.139-.036.139-0.1,0C478.647,979.144,478.683,979.144,478.683,979.28Zm-0.207.1c0,0.139-.036.139-0.1,0C478.44,979.247,478.476,979.247,478.476,979.383Zm24.218,0.1c0,0.069-.069.1-0.207,0.1,0-.068.068-0.1,0.207-0.1h0Zm3.519,0.309h0Zm1.346,0.1v-0.1h0.1v0.1h-0.1Zm0.828,0.1v-0.2c0.137-.068.206-0.034,0.206,0.1s-0.069.172-.206,0.1h0Zm0.465-.1q0.051,0.209-.155,0C508.765,979.762,508.817,979.762,508.852,979.9Zm0.414,0.1c-0.035.069-.121,0.036-0.259-0.1C509.214,979.9,509.3,979.934,509.266,980Zm-28-.1a0.091,0.091,0,0,1-.1.1c0-.067.016-0.085,0.051-0.052s0.052,0.018.052-.051h0Zm19.251,0.412h0Zm0.31-.052a0.307,0.307,0,0,0,.311-0.051,0.3,0.3,0,0,1-.207.1,0.823,0.823,0,0,0-.311.1A0.143,0.143,0,0,1,500.831,980.258Zm1.242,0.052h-0.31c-0.07-.067-0.036-0.1.1-0.1s0.207,0.036.207,0.1l0.207-.1-0.207.206v-0.1h0Zm0.414,0.052c-0.069.035-.1,0.017-0.1-0.052l0.207-.1A0.167,0.167,0,0,1,502.487,980.362Zm0.88,0.051a2.324,2.324,0,0,0-.569-0.1,2.8,2.8,0,0,0,.569-0.052,0.772,0.772,0,0,1,.569.155A0.8,0.8,0,0,1,503.367,980.413Zm0.673,0c0-.067.068-0.1,0.207-0.1a0.728,0.728,0,0,1,.31.052c0.068,0.035.086,0.051,0.052,0.051H504.04Zm1.863,0h0Zm0.1,0.1a0.1,0.1,0,0,1,.207,0h-0.207Zm0.828,0c0.068-.137.1-0.137,0.1,0s-0.036.138-.1,0h0Zm0.725,0h0.1v0.206h-0.1v-0.206Zm-23.494.1-0.1.1a0.091,0.091,0,0,1,.1-0.1h0Zm30.014,0.1c0.068-.137.1-0.137,0.1,0s-0.035.138-.1,0h0Zm0.207,0.1h0Zm0,0.206h-0.1c0-.068.016-0.1,0.052-0.1s0.052,0.035.052,0.1h0Zm0.724,0.309a0.29,0.29,0,0,1-.207-0.207c0-.067-0.069-0.1-0.207-0.1h0.414v0.309h0Zm-3.881-.207q0.051,0.208-.155,0C511.042,981,511.094,981,511.129,981.133Zm1.19,0h0.1v0.1h-0.1v-0.1Zm-31.98,0c0,0.07-.07.1-0.207,0.1,0,0.069.068,0.035,0.207-.1h0Zm0.414,0.1h-0.1c0-.068.016-0.1,0.052-0.1s0.052,0.036.052,0.1h0Zm31.98,0.206c-0.069,0-.1-0.1-0.1-0.31,0.137,0,.207.018,0.207,0.052s0.034,0.052.1,0.052v0.206c-0.069.138-.121,0.12-0.155-0.052s-0.052-.154-0.052.052h0Zm0.725-.1c0.068-.137.155-0.171,0.259-0.1s0.085,0.138-.052.206h0Zm-0.414,0a0.131,0.131,0,0,1,.207,0,0.183,0.183,0,0,1-.207.206h0V981.34Zm1.552,0h-0.1c0-.068.034-0.068,0.1,0h0Zm-24.529.206a0.3,0.3,0,0,1,.208-0.1c0.137,0,.206.1,0.206,0.308a0.348,0.348,0,0,0-.465-0.051c-0.173.1-.3,0.018-0.363-0.257q0.207,0.207.207,0C489.928,981.581,490,981.615,490.067,981.546Zm0.57,0c-0.036,0-.052-0.034-0.052-0.1a0.131,0.131,0,0,1,.207,0,0.129,0.129,0,0,0,.207,0v0.1l-0.1.1a0.131,0.131,0,0,0-.207,0h0C490.688,981.581,490.671,981.546,490.637,981.546Zm-1.915-.1h0.1v0.206h-0.1v-0.206Zm-1.138.206,0.1-.1c0.068,0,.1.069,0.1,0.2h-0.207c0.067-.067.067-0.1,0-0.1h0Zm0.724-.1c0.068,0.069.12,0.086,0.155,0.051s0.052,0.018.052,0.154a0.181,0.181,0,0,1-.207-0.2h0Zm1.087,0.2c-0.1,0-.122-0.067-0.052-0.2a0.305,0.305,0,0,1,.207.1C489.55,981.718,489.5,981.751,489.4,981.751Zm8.952-.1c0-.068.016-0.1,0.052-0.1s0.052,0.035.052,0.1h-0.1Zm5.589-.1c-0.069.138-.139,0.154-0.207,0.051s0-.119.207-0.051h0Zm1.346,0.1h0Zm3.725,0c0,0.138-.035.138-0.1,0C508.972,981.512,509.007,981.512,509.007,981.649Zm0.156,0.1a0.169,0.169,0,0,0-.052-0.2,0.816,0.816,0,0,0,.517.1c-0.069,0-.1.069-0.1,0.206a0.367,0.367,0,0,0-.155-0.206c-0.036,0-.052.069-0.052,0.206C509.179,981.855,509.127,981.82,509.163,981.751Zm-21.372-.1q0.205-.206.155,0c-0.036.138-.088,0.138-0.155,0h0Zm18.629,0.1c-0.069-.067-0.121-0.085-0.155-0.051a0.268,0.268,0,0,1-.259-0.051c0-.068.086-0.1,0.259-0.1s0.223,0.069.155,0.2h0Zm0.621-.1h-0.207a0.131,0.131,0,0,1,.207,0h0Zm0.1,0c0,0.138-.036.138-0.1,0C507.109,981.512,507.145,981.512,507.145,981.649Zm2.846-.052c0.171-.034.223,0.018,0.155,0.154h-0.518A0.731,0.731,0,0,1,509.991,981.6Zm-2.122.154c0.068-.136.1-0.136,0.1,0s-0.036.139-.1,0h0Zm2.38,0.1v-0.206c0.068,0,.1.069,0.1,0.206,0.137,0,.155.035,0.052,0.1s-0.122.035-.052-0.1h-0.1Zm2.174-.1c0.068-.136.1-0.136,0.1,0s-0.035.139-.1,0h0Zm-15.525.1c0,0.069.068,0.035,0.207-.1,0,0.069-.069.1-0.207,0.1h0Zm7.556,0.1h0.1c0,0.069-.018.1-0.052,0.1s-0.051-.033-0.051-0.1h0Zm-10.143.1c0,0.139-.036.139-0.1,0C494.275,981.924,494.311,981.924,494.311,982.06Zm13.454,0c0.068-.136.1-0.136,0.1,0s-0.036.139-.1,0h0Zm-17.387.1c0.137,0,.207-0.033.207-0.1,0.137,0.07.137,0.1,0,.1s-0.207.036-.207,0.1C490.239,982.2,490.239,982.163,490.378,982.163Zm17.284-.1h0Zm1.76,0c0.137,0,.1.018-0.1,0.052s-0.173.018,0.1-.052h0Zm-18.63.1c0-.067.034-0.085,0.1-0.051a0.168,0.168,0,0,0,.207-0.052q0,0.413-.31.1h0Zm19.768,0a0.954,0.954,0,0,1-.932,0,0.813,0.813,0,0,1,.466-0.051,1.562,1.562,0,0,0,.466.051h0Zm-20.855.052c-0.035-.034-0.052-0.016-0.052.052a0.092,0.092,0,0,1,.1-0.1C489.757,982.233,489.739,982.25,489.705,982.215Zm11.23-.052c0,0.07-.018.087-0.052,0.052s-0.052-.016-0.052.052a0.092,0.092,0,0,1,.1-0.1h0Zm1.242,0.1c0-.068.068-0.1,0.207-0.1,0-.067-0.07-0.033-0.207.1h0Zm9.263,0.1a0.918,0.918,0,0,1-.673-0.206,3.151,3.151,0,0,0,.776.1,1.326,1.326,0,0,1,.569.1q0.207-.1.207,0c0,0.069.034,0.069,0.1,0,0,0.139-.052.206-0.155,0.206s-0.156-.067-0.156-0.206H511.44Zm-6.572-.1h0Zm0.31,0c0-.068.034-0.068,0.1,0h-0.1Zm2.484,0.308c-0.07-.067-0.052-0.119.052-0.154s0.119-.086.051-0.154c0,0.138.052,0.2,0.156,0.2a0.305,0.305,0,0,1,.259.206,0.489,0.489,0,0,1-.259-0.1,0.191,0.191,0,0,0-.259,0h0Zm1.345-.206c0-.067.068-0.1,0.207-0.1a0.3,0.3,0,0,1-.207.1h0Zm0.1,0.155c0-.1.068-0.155,0.207-0.155v0.309C509.179,982.678,509.111,982.627,509.111,982.524Zm0.311-.155a0.131,0.131,0,0,1,.206,0,0.129,0.129,0,0,0,.207,0c0.068,0.069,0,.1-0.207.1v0.206c-0.139,0-.19-0.016-0.155-0.051a0.407,0.407,0,0,0,.052-0.258h-0.1Zm-2.381.206c-0.139-.067-0.139-0.1,0-0.1s0.137,0.036,0,.1h0Zm0.362-.051c-0.035-.034-0.052-0.016-0.052.051a0.092,0.092,0,0,1,.1-0.1C507.455,982.541,507.437,982.559,507.4,982.524Zm1.087,0.1c-0.07.035-.1-0.017-0.1-0.155a0.838,0.838,0,0,1,.517.1q0.1,0.208-.1.1c-0.14-.068-0.208-0.068-0.208,0C508.593,982.61,508.558,982.593,508.49,982.627Zm-0.207-.052h0Zm0.776,0q0.051,0.208-.155,0C508.972,982.438,509.024,982.438,509.059,982.575Zm0.673,0.1c0,0.139-.036.139-0.1,0C509.7,982.541,509.732,982.541,509.732,982.678Zm0.1-.1h0.1v0.1h-0.1v-0.1Zm0.207,0c0.068,0,.1.018,0.1,0.052s0.034,0.051.1,0.051l-0.1.1a0.091,0.091,0,0,1-.1-0.1h0v-0.1Zm-6.416.309c-0.207,0-.311-0.034-0.311-0.1a0.367,0.367,0,0,0,.311.052,0.375,0.375,0,0,1,.31.051h-0.31Zm1.656,0.1a0.548,0.548,0,0,1,.517-0.1,1,1,0,0,1,.569-0.051,4.149,4.149,0,0,0,.57.051,0.469,0.469,0,0,1-.518.1,0.984,0.984,0,0,0-.621,0v-0.1a0.822,0.822,0,0,1-.517.1h0Zm-4.14-.1h0Zm4.036,0.1a0.6,0.6,0,0,1-.414-0.1c0-.067.086-0.1,0.259-0.1s0.223,0.069.155,0.206h0Zm-9.625.309h0Zm10.66,0.1c0-.067.068-0.1,0.207-0.1,0,0.069-.069.1-0.207,0.1h0Zm0.725-.155a3.075,3.075,0,0,0,.517.052,0.515,0.515,0,0,1-.517.1,0.451,0.451,0,0,0-.414,0A0.349,0.349,0,0,1,506.938,983.244Zm0.672,0.207c-0.035.035-.051-0.017-0.051-0.155,0.206,0,.274.069,0.206,0.2C507.7,983.434,507.644,983.416,507.61,983.451Zm0.673-.052a0.207,0.207,0,0,0-.155.052,0.415,0.415,0,0,1-.259.05c0-.136.052-0.188,0.155-0.154a0.232,0.232,0,0,0,.259-0.051v0.1h0.1a0.376,0.376,0,0,1,.31-0.052,0.69,0.69,0,0,0,.31.052,0.233,0.233,0,0,1-.258.052,0.475,0.475,0,0,0-.362.05v-0.1h-0.1Zm0.931,0.1c0-.067.068-0.1,0.208-0.1,0-.067-0.07-0.034-0.208.1h0Zm-23.8.207v-0.1h0.311c0,0.069-.1.1-0.311,0.1h0Zm23.8-.1v0.206h0a0.128,0.128,0,0,1,0-.206h0Zm-25.615.257c-0.1-.034-0.121-0.119-0.052-0.257,0.068,0,.1.017,0.1,0.051s0.034,0.052.1,0.052C483.754,983.846,483.7,983.9,483.6,983.862Zm19.82,0.052c0.137-.068.207,0,0.207,0.205a0.308,0.308,0,0,0-.207-0.1v-0.1Zm0.672,0.205c-0.1-.067-0.087-0.136.052-0.205C504.211,984.119,504.2,984.189,504.091,984.119Zm-3.777,0c-0.07,0-.1-0.067-0.1-0.205l0.1,0.205h0Zm0.931-.205c0.138,0.069.155,0.12,0.052,0.154s-0.121.087-.052,0.154a0.09,0.09,0,0,1-.1-0.1,0.092,0.092,0,0,0-.1.1v-0.2h0c0.138,0.138.207,0.1,0.207-.1h0Zm1.139,0.205q-0.105-.1-0.156,0c-0.035.07-.051,0.036-0.051-0.1,0.207,0,.275.035,0.207,0.1h0Zm2.121-.154c0.1-.034.12,0.018,0.052,0.154,0.068,0.07.12,0.087,0.155,0.052s0.052,0.018.052,0.155a0.182,0.182,0,0,1-.207-0.207C504.418,984.052,504.4,984,504.505,983.965Zm-5.64.361c0-.068-0.018-0.1-0.052-0.1s-0.052-.033-0.052-0.1c0-.136.016-0.17,0.052-0.1a0.263,0.263,0,0,0,.259.1c0,0.07-.036.087-0.1,0.052s-0.069.018,0,.155h-0.1Zm0.828-.155c-0.139.035-.173-0.016-0.1-0.154h0.1C499.83,984.086,499.83,984.137,499.693,984.171Zm0.31-.052,0.1-.1c0.137,0.069.171,0.138,0.1,0.2s-0.139.036-.207-0.1h0Zm0.673,0c-0.036-.067-0.121-0.067-0.259,0,0-.136.052-0.188,0.155-0.154a0.687,0.687,0,0,1,.259.154C500.762,984.189,500.71,984.189,500.676,984.119Zm0.776-.1q0.207-.1.052,0.1c-0.1.139-.087,0.172,0.052,0.1,0,0.069-.1.1-0.311,0.1,0,0.069.068,0.035,0.207-.1v-0.2Zm-5.589.2c-0.139,0-.207-0.033-0.207-0.1h0.207v0.1h0Zm0.621,0v-0.1c0.068-.067.1-0.051,0.1,0.052s-0.036.12-.1,0.051h0Zm1.76-.1c0.068,0.07.1,0.07,0.1,0s0.034-.067.1,0c0,0.07-.018.087-0.052,0.052s-0.052-.016-0.052.051h-0.1v-0.1Zm1.138,0h0Zm-5.692.1c0,0.069-.052.087-0.155,0.052s-0.088-.085.051-0.155a0.093,0.093,0,0,1,.1.1h0Zm0.673,0.1c-0.1,0-.122-0.068-0.052-0.207,0.068,0,.1.018,0.1,0.052s0.034,0.051.1,0.051C494.518,984.291,494.466,984.326,494.363,984.326Zm0.569-.1a0.092,0.092,0,0,1,.1-0.1,0.092,0.092,0,0,1-.1.1h0Zm0.414,0c0-.067.068-0.1,0.207-0.1,0,0.07-.07.1-0.207,0.1h0Zm1.345,0c0.138-.067.172-0.051,0.1,0.052s-0.1.087-.1-0.052h0Zm1.035,0c0,0.139-.035.139-0.1,0C497.691,984.086,497.726,984.086,497.726,984.222Zm6.728,0.1-0.207-.1c0-.067.068-0.085,0.207-0.051s0.137,0.087,0,.155h0Zm-4.451-.1a0.092,0.092,0,0,1-.1.1l0.1-.1h0Zm-2.9.206v-0.1c0.068,0,.1.069,0.1,0.2a0.091,0.091,0,0,1-.1-0.1h0Zm-4.036.309a0.584,0.584,0,0,1,.31-0.206c0,0.139-.035.19-0.1,0.155a0.171,0.171,0,0,0-.207.051h0Zm0.414-.051c-0.139.1-.139,0.087,0-0.051C493.62,984.567,493.62,984.583,493.483,984.686Zm-1.242.051c0.068-.136.1-0.136,0.1,0s-0.035.139-.1,0h0Zm0.414-.1c0,0.069-.07.1-0.207,0.1,0-.067.068-0.1,0.207-0.1h0Zm-1.76.205c0-.136.034-0.17,0.1-0.1s0.1,0.069.1,0c0.138,0,.156.018,0.052,0.052a0.836,0.836,0,0,1-.259.051h0Zm1.035-.1h0Zm10.247,0.1c-0.07,0-.07-0.034,0-0.1,0.068,0,.068.036,0,0.1h0Zm0.672,0c-0.035.069-.087,0.036-0.155-0.1v0.1c-0.139,0-.207-0.016-0.207-0.051s-0.069-.016-0.207.051a0.3,0.3,0,0,1,.362-0.154,2.346,2.346,0,0,0,.466.051l-0.1.1c0.137,0.069.171,0.121,0.1,0.155s-0.1-.016-0.1-0.155Q502.9,984.74,502.849,984.84Zm0.363-.1h0.414c0.068,0.139.034,0.172-.1,0.1s-0.173-.034-0.1.1h0Zm-2.588.1h0.1l0.1-.1v0.206c-0.069-.067-0.1-0.085-0.1-0.051s-0.036.017-.1-0.052h0Zm0.621,0q0,0.1-.207,0c0-.067.086-0.1,0.259-0.1s0.223,0.069.155,0.206C501.313,984.806,501.245,984.773,501.245,984.84Zm0.311,0c-0.07,0,0-.034.207-0.1v0.206A0.31,0.31,0,0,0,501.556,984.84Zm0.31,0.1v-0.1c0-.136.034-0.17,0.1-0.1a0.3,0.3,0,0,1,.1.206h-0.207Zm-4.14-.1c0,0.069.016,0.1,0.052,0.1s0.052,0.036.052,0.1c-0.07,0-.1-0.067-0.1-0.206h0ZM497.933,985a0.167,0.167,0,0,0,.1-0.155,0.092,0.092,0,0,1,.1.1v0.1h-0.1C497.9,985.046,497.864,985.03,497.933,985Zm0.466,0.051c-0.173,0-.225-0.067-0.155-0.206,0.137,0,.207.018,0.207,0.052s0.068,0.017.207-.052A0.209,0.209,0,0,1,498.4,985.046Zm0.362-.1c0,0.139-.035.139-0.1,0C498.726,984.806,498.761,984.806,498.761,984.943Zm0.1,0c0-.067.016-0.085,0.052-0.051s0.051,0.017.051-.052a0.091,0.091,0,0,1-.1.1h0ZM499.227,985c-0.1.035-.155,0.018-0.155-0.052a0.3,0.3,0,0,0,.207-0.1C499.347,984.909,499.331,984.961,499.227,985Zm0.466-.052c0.137-.137.207-0.154,0.207-0.051s-0.07.121-.207,0.051h0Zm0.31,0c0,0.07.068,0.036,0.207-.1,0,0.069-.069.1-0.207,0.1h0Zm2.484,0c0,0.139-.035.139-0.1,0C502.452,984.806,502.487,984.806,502.487,984.943Zm-5.278.1c0,0.07-.052.1-0.155,0.1s-0.156-.067-0.156-0.206c0.138,0,.207.018,0.207,0.052s0.034,0.051.1,0.051h0Zm0.31,0c0,0.139-.035.139-0.1,0C497.484,984.909,497.519,984.909,497.519,985.046Zm-1.552.1H495.76c-0.139,0-.207-0.033-0.207-0.1a0.344,0.344,0,0,1,.414.1h0Zm0.207-.1c0,0.139-.07.139-0.207,0C496.1,984.909,496.174,984.909,496.174,985.046Zm0,0c0.207,0,.31.036,0.31,0.1-0.207,0-.31-0.033-0.31-0.1h0Zm0.517,0c0,0.139-.035.139-0.1,0C496.656,984.909,496.691,984.909,496.691,985.046Zm0.1,0c0,0.139-.036.139-0.1,0C496.759,984.909,496.8,984.909,496.8,985.046Zm10.919,0.052c0.034,0.035.051,0.018,0.051-.052a0.093,0.093,0,0,1,.1.1h-0.207C507.662,985.082,507.678,985.064,507.714,985.1Zm-12.886-.052h0.1v0.206h-0.207v-0.1a0.091,0.091,0,0,0,.1-0.1h0Zm10.557,0.1,0.207-.1c0,0.07-.069.1-0.207,0.1h0Zm0.621,0c0,0.139-.036.139-0.1,0C505.97,985.013,506.006,985.013,506.006,985.149Zm0.621,0a0.213,0.213,0,0,1,.207-0.154c0.138-.034.172,0.018,0.1,0.154h-0.311Zm0.673-.1c0.1,0,.119.036,0.051,0.1h-0.206C507.145,985.082,507.2,985.046,507.3,985.046Zm-13.921.1h0.414c-0.069.139-.121,0.172-0.155,0.1s-0.121-.034-0.259.1v-0.206Zm0.414,0.1c0.068-.136.12-0.17,0.156-0.1s0.119,0.069.258,0h0.1q0.205-.2.155,0.052c-0.035.172-.087,0.154-0.155-0.052h-0.1a0.6,0.6,0,0,1-.414.1h0Zm0.621-.1h0.207v0.1h-0.207v-0.1Zm0.828,0h0Zm9.936,0h0Zm-11.8.1c-0.139.139-.207,0.139-0.207,0s0.068-.136.207,0h0Zm-0.828.1c0,0.138-.035.138-0.1,0C492.516,985.218,492.551,985.218,492.551,985.355Zm-0.931,0h0Zm-3.105.1c0.137-.067.155-0.052,0.052,0.051s-0.122.087-.052-0.051h0Zm0.828,0h0Zm-1.967.1c0.138-.137.208-0.137,0.208,0s-0.07.138-.208,0h0Zm28.152-4.015c-0.07.2-.088,0.223-0.052,0.051s0.052-.188.052-0.051h0Zm0.621,0.412c0-.207-0.07-0.309-0.207-0.309a0.571,0.571,0,0,0,.207.309h0Zm-4.554,0q-0.209-.207-0.155,0c0.034,0.138.085,0.138,0.155,0h0Zm1.449,0.1c0.137,0,.207-0.033.207-0.1-0.139,0-.207.035-0.207,0.1h0Zm0.31,0c0-.136-0.035-0.136-0.1,0C513.319,982.2,513.354,982.2,513.354,982.06Zm1.449,0.309v0.206h0.1c0.137-.137.1-0.206-0.1-0.206h0Zm-3.467.361c0.1-.1.086-0.155-0.052-0.155C511.215,982.781,511.233,982.833,511.336,982.73Zm1.4-.052c0-.137-0.035-0.137-0.1,0C512.7,982.817,512.733,982.817,512.733,982.678Zm-1.138,0q-0.209-.205-0.155,0c0.034,0.139.085,0.139,0.155,0h0Zm0.207,0c0-.137-0.07-0.137-0.207,0C511.732,982.817,511.8,982.817,511.8,982.678Zm1.138,0.1h0.1v-0.1h-0.1v0.1Zm-1.242.206c0-.137-0.035-0.137-0.1,0C511.663,983.125,511.7,983.125,511.7,982.987Zm0.621-.1-0.207.206a0.261,0.261,0,0,1,.311,0,0.129,0.129,0,0,0,.207,0,0.306,0.306,0,0,0-.155-0.1,0.28,0.28,0,0,1-.156-0.1h0Zm-0.517.567c0.068-.1.034-0.119-0.1-0.052C511.7,983.537,511.732,983.553,511.8,983.451Zm-1.656.257c0,0.206.034,0.309,0.1,0.309a0.091,0.091,0,0,1,.1-0.1,0.305,0.305,0,0,1,.207.1c0-.137.1-0.171,0.31-0.1s0.241,0.035.1-.1c0,0.069-.07.087-0.207,0.051a0.21,0.21,0,0,1-.207-0.154c-0.139,0-.191.017-0.155,0.051s-0.018.052-.156,0.052a0.092,0.092,0,0,0-.1-0.1h0Zm-4.968.309v0h0Zm1.035,0.1v0.1a0.165,0.165,0,0,0,.155-0.1c0.034-.067-0.017-0.1-0.155-0.1h0v0.1Zm0.414,0.1c0.068,0.069.1,0.036,0.1-.1C506.592,984.119,506.557,984.155,506.627,984.222Zm-1.449-.1h0Zm0.207,0.1c0-.136-0.035-0.136-0.1,0C505.35,984.361,505.385,984.361,505.385,984.222Zm0.466,0c0.034,0,.052-0.033.052-0.1h-0.1C505.8,984.189,505.815,984.222,505.851,984.222Zm3.156,0,0.1-.1-0.1.1h0Zm1.242,0.413c0-.207-0.139-0.258-0.414-0.155a2.251,2.251,0,0,1-.517.155h0.931Zm-2.225.36c0.034-.171.052-0.189,0.052-0.052C508.006,985.149,507.989,985.167,508.024,985Z" transform="translate(-477.656 -978.562)"/>
</svg>
