<svg xmlns="http://www.w3.org/2000/svg" width="50.35" height="15.782" viewBox="0 0 50.35 15.782">
  <metadata><?xpacket begin="﻿" id="W5M0MpCehiHzreSzNTczkc9d"?>
<x:xmpmeta xmlns:x="adobe:ns:meta/" x:xmptk="Adobe XMP Core 5.6-c140 79.160451, 2017/05/06-01:08:21        ">
   <rdf:RDF xmlns:rdf="http://www.w3.org/1999/02/22-rdf-syntax-ns#">
      <rdf:Description rdf:about=""/>
   </rdf:RDF>
</x:xmpmeta>
                                                                                                    
                                                                                                    
                                                                                                    
                                                                                                    
                                                                                                    
                                                                                                    
                                                                                                    
                                                                                                    
                                                                                                    
                                                                                                    
                                                                                                    
                                                                                                    
                                                                                                    
                                                                                                    
                                                                                                    
                                                                                                    
                                                                                                    
                                                                                                    
                                                                                                    
                                                                                                    
                           
<?xpacket end="w"?></metadata>
<defs>
    <style>
      .cls-1 {
        fill: #53c2ea;
        fill-rule: evenodd;
      }
    </style>
  </defs>
  <path id="__copy" data-name="_ copy" class="cls-1" d="M1084.93,959.444a0.97,0.97,0,0,1-.26.649l-0.03-.1c-0.1.168-.11,0.259-0.04,0.275s0.06,0.076-.06.175a0.579,0.579,0,0,1-.39-0.7,1.509,1.509,0,0,1,.35-0.774q-0.33-.024-0.36.087a0.65,0.65,0,0,1-.1.237,1.668,1.668,0,0,1,.76-1.036,12.62,12.62,0,0,1,1.43-.885,6.784,6.784,0,0,1,2.08-1.1q1.365-.5,2.52-1,4.605-1.67,9.81-3.014t10.57-2.513q5.37-1.17,10.59-2.251t9.69-2.4a2.4,2.4,0,0,1,.96-0.449c-0.02.5,0.14,0.567,0.47,0.2l0.05,0.2,0.31-.075a2.52,2.52,0,0,1,.77.975,4.967,4.967,0,0,0,.15,1.448,6.757,6.757,0,0,1,.17,1.55,3.617,3.617,0,0,1-1.52,2.071,4.368,4.368,0,0,0-1.63,2,5.931,5.931,0,0,1-2.9,1.671,25.8,25.8,0,0,1-3.94.871,4.053,4.053,0,0,0-1.49.211,2.44,2.44,0,0,1-1.42.086l-0.3.075a30.111,30.111,0,0,0-5.19.382q-2.82.436-5.88,0.981a8.465,8.465,0,0,1-2.4.435,5.282,5.282,0,0,0-2.35.636q-0.75-.026-1.86.035a2.377,2.377,0,0,0-1.53.486c-0.03-.133-0.09-0.153-0.17-0.063a0.518,0.518,0,0,1-.23.162,0.167,0.167,0,0,1-.1-0.187c0.02-.074-0.01-0.1-0.08-0.087l-0.95.236a5.078,5.078,0,0,1-.98.137l-0.07.124a0.554,0.554,0,0,1-.46.112,0.55,0.55,0,0,0-.45.112c-0.03-.132-0.08-0.191-0.15-0.175a0.088,0.088,0,0,0-.12-0.075c-0.07.017-.03,0.043,0.12,0.075l0.03,0.1a1.351,1.351,0,0,0-.68.275c-0.04-.133-0.1-0.188-0.2-0.163a0.364,0.364,0,0,0-.23.162c-0.05-.2-0.11-0.292-0.17-0.275l-0.03-.1c-0.2.05-.29,0.109-0.28,0.175l0.31-.075a0.926,0.926,0,0,1-.44.374c-0.2.085-.31,0.06-0.34-0.075,0.12-.1.15-0.161,0.11-0.188a0.389,0.389,0,0,1-.11-0.237,2.433,2.433,0,0,1,.95-0.236,1.638,1.638,0,0,0,.93-0.336c0.04,0.134.09,0.191,0.15,0.174a1.2,1.2,0,0,1,.78-0.3,1.886,1.886,0,0,0,.98-0.349,0.578,0.578,0,0,0,.73-0.074,0.506,0.506,0,0,1,.6-0.15c0.1-.166-0.07-0.211-0.51-0.138a1.192,1.192,0,0,0-.82.362,1.688,1.688,0,0,0-.95.024,2.369,2.369,0,0,0-.96.449,0.18,0.18,0,0,0-.25-0.151c0.02,0.068.01,0.1-.02,0.113s-0.05.047-.03,0.112a4.126,4.126,0,0,0-1.63.3,4.087,4.087,0,0,1-1.63.3,3.828,3.828,0,0,1,1.43-.461,3.792,3.792,0,0,0,1.43-.461c0.14-.034.21-0.032,0.21,0s0.05,0.042.12,0.025c0.03-.149.2-0.208,0.49-0.174s0.42-.015.39-0.15c0.03,0.135.12,0.147,0.27,0.039a4.679,4.679,0,0,0,.4-0.312q-0.15.25,0.24,0.1a5.78,5.78,0,0,1,.59-0.2l-0.1.025-0.2.05c-0.08-.049-0.09-0.083-0.02-0.1s0.08-.09.05-0.225c-0.07.016-.1,0.042-0.09,0.075s-0.02.058-.09,0.075a0.974,0.974,0,0,0-.56.087,6.11,6.11,0,0,1-.74.237c-0.1-.117-0.2-0.092-0.31.074a0.4,0.4,0,0,0-.05.225c-0.15-.033-0.2-0.092-0.15-0.175s0.01-.109-0.12-0.075c-0.07.016-.09,0.092-0.05,0.224a0.64,0.64,0,0,0-.91.224,0.179,0.179,0,0,0-.25-0.149c-0.33.082-.67,0.165-1,0.248a1.044,1.044,0,0,0-.66.374c-0.03-.133-0.08-0.191-0.15-0.175a0.71,0.71,0,0,1-.69.225c-0.36-.017-0.55.05-0.59,0.2q0.03-.326-0.27-0.25a1.174,1.174,0,0,1-.53.025,2.69,2.69,0,0,1,1.01-.249l0.05,0.2-0.05-.2c-0.02-.066.01-0.091,0.08-0.076s0.1-.04.07-0.174c-0.47.116-.9,0.241-1.3,0.373a5.885,5.885,0,0,1-1.31.274,8.614,8.614,0,0,1,1.75-.648q0.915-.224,1.71-0.423a6.8,6.8,0,0,1,1.35-.386,3.816,3.816,0,0,0,1.04-.311,1.283,1.283,0,0,0-.75-0.026,0.859,0.859,0,0,0-.56.349,3.528,3.528,0,0,0-1.48.261c-0.55.208-.99,0.387-1.31,0.536a0.251,0.251,0,0,0-.16-0.225c-0.07-.016-0.09.043-0.06,0.175a1.078,1.078,0,0,0-.58.249c-0.03-.132-0.08-0.191-0.15-0.175,0.03,0.135.02,0.208-.05,0.225-0.05-.2-0.14-0.212-0.28-0.038s-0.21.2-.25,0.062a1.4,1.4,0,0,1,.38-0.411,2.639,2.639,0,0,1,.83-0.311c0.03,0.133-.06.191-0.28,0.174s-0.31.042-.27,0.174c-0.17-.1-0.23-0.05-0.18.15,0.02,0.067.08,0.018,0.18-.15a0.252,0.252,0,0,0,.3-0.074,0.417,0.417,0,0,1,.4-0.1c-0.1-.116-0.08-0.191.05-0.224a0.317,0.317,0,0,0,.25-0.275,14.639,14.639,0,0,1-1.58.5,5.35,5.35,0,0,0-1.36.548,0.29,0.29,0,0,1-.26-0.2c-0.03-.1.03-0.166,0.16-0.2l0.13,0.075a0.1,0.1,0,0,0-.13-0.075,0.4,0.4,0,0,1,.05-0.225,0.4,0.4,0,0,0,.36.125,2.79,2.79,0,0,1,.95-0.449,1.971,1.971,0,0,0,.85-0.424,4.517,4.517,0,0,0-1.3.324,10.052,10.052,0,0,1-1.38.448c0.13-.033.16-0.074,0.07-0.125q-0.87.325-1.35,0.548c-0.32.151-.73,0.359-1.24,0.624a1.9,1.9,0,0,1,.82-0.574,3.7,3.7,0,0,0,.94-0.5,0.181,0.181,0,0,1-.1-0.188c0.02-.074,0-0.1-0.07-0.088a0.273,0.273,0,0,0-.06.175,0.359,0.359,0,0,1-.17.2c-0.16-.1-0.32-0.026-0.47.224a0.158,0.158,0,0,1-.1-0.188c0.01-.074-0.01-0.1-0.08-0.087-0.18.116-.23,0.233-0.13,0.349-0.15-.032-0.21-0.016-0.2.05s-0.04.116-.17,0.15c-0.04-.133-0.09-0.192-0.15-0.175l-0.15.249c-0.17-.1-0.27-0.074-0.31.075a0.2,0.2,0,0,1-.27.175c-0.1-.116,0-0.213.3-0.287s0.35-.229.15-0.462a0.423,0.423,0,0,1-.36.249,0.612,0.612,0,0,0-.39.149,0.18,0.18,0,0,1,.15-0.249l0.1-.025a0.086,0.086,0,0,0,.07-0.125c-0.13.033-.19,0.084-0.17,0.15-0.1-.116-0.08-0.192.05-0.225s0.15-.107.05-0.224a0.883,0.883,0,0,1-.39.361,0.315,0.315,0,0,0-.16.412,0.615,0.615,0,0,0-.38.2l-0.05-.2a0.814,0.814,0,0,0,.28-0.174c0.11-.1.1-0.167-0.05-0.2-0.14.033-.2,0.085-0.18,0.15a0.281,0.281,0,0,1-.05.225h0A0.951,0.951,0,0,0,1084.93,959.444Zm47.52-14.37c0.03,0.134.06,0.126,0.1-.025C1132.45,944.933,1132.41,944.941,1132.45,945.074Zm0.21,0c0.02,0.1.1,0.1,0.21,0C1132.71,944.975,1132.64,944.974,1132.66,945.074Zm-30.83,7.691c0.02,0.067.13,0.075,0.33,0.025-0.02-.065-0.13-0.075-0.33-0.025h0Zm-4.34,1.395c-0.02-.066-0.06-0.075-0.12-0.025s-0.02.058,0.12,0.025h0Zm-1.79.547-0.02-.1-0.1.025,0.02,0.1,0.1-.025h0Zm-0.98.35-0.05-.2c-0.15-.032-0.21.018-0.17,0.151s0.1,0.149.22,0.05h0Zm-0.58.036c0,0.143.05,0.13,0.16-.037C1094.2,954.939,1094.15,954.952,1094.14,955.093Zm-0.52.237q0.12,0.076.27-.174C1093.63,955.221,1093.53,955.281,1093.62,955.33Zm35.64-8.935a0.084,0.084,0,0,0,.12.075c-0.02-.065-0.04-0.078-0.06-0.037s-0.05.029-.06-0.038h0Zm-24.42,6.473a0.231,0.231,0,0,0-.19.1c0.01,0.034.08,0,.19-0.1h0Zm-0.46.061a0.4,0.4,0,0,1-.37.038,0.366,0.366,0,0,0,.28.037,0.858,0.858,0,0,1,.38.013C1104.63,952.885,1104.54,952.855,1104.38,952.929Zm-1.55.436,0.4-.1c0.06-.082,0-0.105-0.17-0.063s-0.24.1-.23,0.162l-0.1.025-0.22-.05c-0.02-.066.1-0.025,0.35,0.125l-0.03-.1h0Zm-0.54.187c0.11,0.01.16-.02,0.14-0.087l-0.33-.025A0.183,0.183,0,0,0,1102.29,953.552Zm-1.09.324a3.994,3.994,0,0,1,.73-0.287,4.55,4.55,0,0,1-.72.125,1.6,1.6,0,0,0-.76.349A1.461,1.461,0,0,0,1101.2,953.876Zm-0.85.212c-0.02-.066-0.11-0.08-0.28-0.038a1.324,1.324,0,0,0-.39.149c-0.09.059-.1,0.079-0.04,0.063s0.3-.075.71-0.174h0Zm-2.41.6c0.13-.034.16-0.058,0.08-0.075s-0.1.009-.08,0.075h0Zm-0.08.124a0.1,0.1,0,0,0-.13-0.075,0.091,0.091,0,0,0-.07.125l0.2-.05h0Zm-1.01.249c-0.16-.1-0.23-0.083-0.2.05s0.1,0.118.2-.05h0Zm-0.98.35-0.02-.1-0.1.024,0.02,0.1,0.1-.024h0Zm-8.23,2.04c-0.15-.032-0.22,0-0.19.1s0.09,0.068.19-.1h0Zm-0.28.175h0Zm0.05,0.2,0.1-.024c-0.02-.066-0.04-0.1-0.07-0.088s-0.05.047-.03,0.112h0Zm-0.83.525a0.278,0.278,0,0,0,.15-0.25c-0.01-.066.08-0.125,0.28-0.175a0.249,0.249,0,0,0-.27.012,0.852,0.852,0,0,1-.23.113l0.07,0.3h0Zm4.92-1.432c0,0.142.05,0.13,0.15-.038C1091.56,956.761,1091.51,956.773,1091.5,956.915Zm-1.55.386-0.1.024,0.02,0.1,0.1-.025Zm40.78-10.105c0.02,0.067.1,0.083,0.23,0.05,0.02,0.067-.06.051-0.23-0.05h0Zm-0.47.224,0.1-.025c-0.02-.065-0.04-0.1-0.08-0.087s-0.04.047-.02,0.112h0Zm-40.74,10.305c0.07-.017.07-0.125,0.02-0.325a0.37,0.37,0,0,0-.23.112,0.24,0.24,0,0,1-.14.087l0.05,0.2c0.1,0.118.16,0.084,0.19-.1s0.06-.174.11,0.026h0Zm-0.93.124a0.286,0.286,0,0,0-.38-0.013c-0.08.092-.05,0.155,0.1,0.187,0.1-.166.2-0.224,0.28-0.174h0Zm0.5-.125-0.2.05-0.1.025c0.03,0.134.15,0.175,0.35,0.125h0Zm-2.01.5,0.1-.025c-0.01-.065-0.05-0.057-0.1.025h0Zm31.35-7.553a0.543,0.543,0,0,0-.28-0.038,0.276,0.276,0,0,0-.23.375,0.549,0.549,0,0,1,.53-0.237,0.466,0.466,0,0,0,.5-0.336q-0.24.274-.3,0.074C1118.62,950.658,1118.54,950.712,1118.43,950.669Zm-0.71.174c0.04-.008.04-0.045,0.03-0.112a0.187,0.187,0,0,0-.25.062,0.186,0.186,0,0,1-.25.062l0.02,0.1c-0.13.033-.2,0.067-0.19,0.1s0.07,0,.19-0.1l0.13,0.075a0.256,0.256,0,0,1,.3-0.075h0C1117.68,950.89,1117.69,950.852,1117.72,950.843Zm2.34-.685-0.1.025,0.05,0.2,0.1-.024-0.03-.1Zm-18.37,4.605c-0.01-.033-0.07,0-0.19.1A0.228,0.228,0,0,0,1101.69,954.763Zm19.92-4.778-0.12-.075a0.186,0.186,0,0,0-.15.25l0.3-.075c-0.08-.049-0.09-0.084-0.03-0.1h0Zm-0.92.124a0.273,0.273,0,0,1-.24.112c-0.04-.025-0.05.03-0.02,0.163,0.2-.05.29-0.141,0.26-0.275h0Zm-1.36.549c0.13-.034.15-0.108,0.05-0.225a0.444,0.444,0,0,0-.28.174C1119.12,950.674,1119.2,950.69,1119.33,950.658Zm-11.48,2.737c-0.01-.066-0.04-0.1-0.07-0.088s-0.05.047-.03,0.113Zm-7.16,1.667a0.239,0.239,0,0,0,.37-0.037c0.07-.125-0.05-0.112-0.37.037h0Zm-1.68.523h0Zm-0.71.124c-0.06.05-.03,0.058,0.11,0.025C1098.39,955.669,1098.35,955.66,1098.3,955.709Zm-4.01,1.046c0.03,0.134.07,0.125,0.1-.025C1094.29,956.613,1094.26,956.622,1094.29,956.755Zm-0.23.161c-0.05-.057-0.01-0.136.1-0.236a1.711,1.711,0,0,1-.67.274c0.06-.017.11,0.042,0.15,0.175q0.195-.473.3-0.075Q1094.135,957,1094.06,956.916Zm27.25-6.856c-0.16-.1-0.21-0.087-0.15.037s0.12,0.113.15-.037h0Zm-23.68,5.973a0.171,0.171,0,0,1,.19-0.1,0.374,0.374,0,0,0,.29-0.124c-0.02-.065-0.13-0.075-0.33-0.025s-0.25.133-.15,0.249h0Zm-0.83.1,0.3-.075-0.2.049-0.1.026h0Zm-0.1.024c0.03,0.135.07,0.126,0.1-.024C1096.7,956.016,1096.67,956.024,1096.7,956.157Zm-3.68.859c-0.24.025-.28,0.088-0.11,0.187l0.6-.149A0.887,0.887,0,0,0,1093.02,957.016Zm2.8-.535c-0.17-.1-0.24-0.1-0.21,0s0.09,0.1.21,0h0Zm-3.09.872-0.05-.2c-0.06.016-.08,0.092-0.05,0.225-0.13.032-.15,0.054-0.04,0.062s0.13-.012.04-0.062l0.1-.025h0Zm-2.74.572c-0.16-.1-0.23-0.1-0.21,0s0.1,0.1.21,0h0Zm4.94-1.17c-0.06.051-.1,0.042-0.11-0.025C1094.95,956.7,1094.99,956.706,1094.93,956.755Zm14.88-3.633c-0.02-.066-0.05-0.075-0.11-0.025a0.177,0.177,0,0,1-.22,0c0.02,0.067.13,0.075,0.33,0.025h0Zm-9.64,2.389-0.1.025c0.01,0.067.04,0.1,0.07,0.087s0.04-.045.03-0.112h0Zm12.98-3.11c0.03,0.134.07,0.125,0.1-.026C1113.15,952.259,1113.12,952.268,1113.15,952.4Zm-17.18,4.255c-0.1-.116-0.13-0.108-0.1.025s0.07,0.126.1-.025h0Zm22.13-5.375c-0.14.033-.21,0.017-0.23-0.05-0.12.1-.11,0.133,0.03,0.1s0.21-.016.22,0.05C1118.24,951.282,1118.23,951.247,1118.1,951.281Zm-22.03,5.35,0.1-.025-0.1.025h0Zm-2.21.548c-0.2.05-.16,0.058,0.11,0.025s0.24-.041-0.11-0.025h0Zm23.51-5.612a0.312,0.312,0,0,0,.22-0.162c0.02,0.067-.12.068-0.42,0C1117.2,951.54,1117.27,951.593,1117.37,951.567Zm-24.99,6.085a1.7,1.7,0,0,0,1.2-.3,1.19,1.19,0,0,0-.56.086,2.483,2.483,0,0,1-.64.212h0Zm26.63-6.545c0.06-.05.1-0.041,0.12,0.025-0.02-.066-0.09-0.083-0.23-0.05C1118.92,951.149,1118.96,951.158,1119.01,951.107Zm-14.27,3.484c0.01,0.067.03,0.08,0.06,0.037s0.04-.028.06,0.038a0.09,0.09,0,0,0-.12-0.075h0Zm-1.91.473,0.32,0.026c-0.01-.066-0.12-0.076-0.32-0.026h0Zm-11.41,3.037a1.19,1.19,0,0,0,.76-0.4,5.439,5.439,0,0,1-.98.349,1.773,1.773,0,0,0-.68.274c-0.15-.032-0.23-0.012-0.25.062s-0.07.088-.15,0.037a0.182,0.182,0,0,0,.25.151,0.185,0.185,0,0,0,.15-0.25Zm8.32-2.166,0.1-.025-0.1.025h0Zm-0.4.1-0.1.025-0.11.025Zm-3.14,1.1c0.05-.083.02-0.128-0.09-0.138s-0.14-.054-0.09-0.137a0.186,0.186,0,0,1-.15.25,0.33,0.33,0,0,0-.25.274,0.781,0.781,0,0,0,.27-0.174,0.269,0.269,0,0,1,.31-0.075h0Zm-1.76.223c-0.02-.065-0.13-0.075-0.33-0.025a0.794,0.794,0,0,0,.33.025h0Zm-0.12.187a0.227,0.227,0,0,0-.28-0.087l0.07,0.3Q1094.41,957.679,1094.32,957.541Zm-0.38-.062a0.276,0.276,0,0,0-.31.074,0.126,0.126,0,0,1-.2.05c-0.11.1-.04,0.116,0.23,0.05l0.05,0.2c0.2-.05.26-0.082,0.19-0.1a0.267,0.267,0,0,1-.17-0.224Zm3.06-.547c0.12-.1.09-0.129-0.08-0.088s-0.14.072,0.08,0.088h0Zm-0.47.062c0.03-.041.05-0.028,0.07,0.038a0.1,0.1,0,0,0-.13-0.076C1096.49,957.024,1096.51,957.037,1096.53,956.994Zm-1.38.449c0.11,0.009.15-.053,0.12-0.188a1.787,1.787,0,0,0-.68.275c-0.03.15,0.02,0.17,0.17,0.062s0.24-.128.25-0.062C1095,957.464,1095.04,957.434,1095.15,957.443Zm0.24-.113c0.14-.033.17-0.024,0.11,0.026s-0.09.041-.11-0.026h0Zm-0.95.237q0,0.213.15-.037C1094.49,957.413,1094.44,957.425,1094.44,957.567Zm-0.83.311c0.03,0.135.07,0.126,0.1-.025C1093.61,957.737,1093.58,957.745,1093.61,957.878Zm-0.13-.075-0.2.05,0.03,0.1,0.2-.05Zm-0.3.075a0.1,0.1,0,0,0-.09.075c0.01,0.034-.05.066-0.19,0.1l0.11-.025a0.091,0.091,0,0,1,.12.075,0.094,0.094,0,0,0,.08-0.124Zm8.21-1.716c0.27-.067.4-0.133,0.38-0.2a0.767,0.767,0,0,1-.44.162,0.482,0.482,0,0,0-.34.137Zm-2.08.623a0.776,0.776,0,0,0-.63.048,1.924,1.924,0,0,0-.77.137,6.939,6.939,0,0,1-.74.237,0.7,0.7,0,0,0,.68-0.062,1.946,1.946,0,0,1,.86-0.211l-0.03-.1a1.084,1.084,0,0,0,.63-0.048h0Zm5.3-1.42,0.3-.075-0.3.075h0Zm-5.1,1.37a0.827,0.827,0,0,0,.48-0.225c-0.02-.065-0.14-0.071-0.38-0.013s-0.27.137-.1,0.238h0Zm12.3-2.837,0.21-.05-0.21.05h0Zm-13.53,3.46c-0.02-.066-0.13-0.075-0.33-0.025,0.02,0.067.13,0.075,0.33,0.025h0Zm-1.04.1a5.716,5.716,0,0,1-.59.2,0.814,0.814,0,0,0,.67-0.062,0.843,0.843,0,0,1,.56-0.137A0.72,0.72,0,0,0,1097.24,957.457Zm-0.81.411c0.04,0.026.05-.028,0.01-0.162q-0.3.075-.15,0.25C1096.34,957.873,1096.39,957.844,1096.43,957.868Zm-0.87.162a0.752,0.752,0,0,1,.32-0.025,0.693,0.693,0,0,0,.31-0.025c-0.03-.132-0.11-0.166-0.24-0.1a0.566,0.566,0,0,1-.41.05l0.02,0.1-0.1.024a0.8,0.8,0,0,0-.46.063,1.049,1.049,0,0,1-.34.137,0.385,0.385,0,0,0,.36-0.037,0.727,0.727,0,0,1,.47-0.062l-0.03-.1,0.1-.024h0Zm-1.18.4c-0.01-.066-0.09-0.084-0.22-0.051-0.02-.065.06-0.049,0.22,0.051h0Zm30.49-7.342-0.02-.1-0.4.1c0.01,0.068.16,0.067,0.42,0h0Zm-30.34,7.517-0.12-.076,0.05,0.2h0a0.085,0.085,0,0,0,.07-0.124h0Zm32.64-7.927c0.09-.058.09-0.145-0.01-0.262-0.07.016-.1,0.042-0.09,0.075s-0.02.058-.09,0.074C1127.02,950.7,1127.08,950.736,1127.17,950.677Zm-25.25,6.31c-0.22-.016-0.3.074-0.25,0.274a0.8,0.8,0,0,1,.27-0.175Zm-0.87.373c0.13-.066.11-0.116-0.04-0.149C1100.91,957.378,1100.93,957.428,1101.05,957.36Zm4.83-1.144a0.186,0.186,0,0,0,.16-0.25c-0.19.117-.24,0.2-0.16,0.25h0Zm-1.15.073c-0.12.1-.12,0.155-0.01,0.163s0.14,0.055.08,0.137a0.09,0.09,0,0,0,.08-0.125,0.1,0.1,0,0,1,.13.076,0.09,0.09,0,0,0,.07-0.125l-0.12-.075c-0.1.167-.18,0.149-0.23-0.051h0Zm-1.46.574a0.13,0.13,0,0,1,.2-0.05c0.09,0.05.11,0.009,0.08-.125-0.27.066-.36,0.125-0.28,0.175h0Zm-2.75.522c-0.14,0-.13.05,0.04,0.15-0.17.184-.26,0.242-0.28,0.174,0.2-.049.3-0.107,0.28-0.174C1100.68,957.436,1100.67,957.386,1100.52,957.385Zm7.3-1.542,0.07-.125q-0.045-.2-0.12-0.075a0.415,0.415,0,0,1-.28.174c0.02,0.068.07,0.072,0.17,0.013s0.08-.036-0.04.063l0.2-.05h0Zm-1.12.224c0.21-.016.27-0.083,0.16-0.2l-0.2.05h0C1106.48,956.034,1106.49,956.084,1106.7,956.067Zm-0.41.049-0.13-.075c-0.12.1-.14,0.158-0.06,0.175a0.174,0.174,0,0,0,.19-0.1h0Zm-0.81.2a0.255,0.255,0,0,1,.3-0.074,0.137,0.137,0,0,0-.23-0.1,0.668,0.668,0,0,0-.27.225A0.127,0.127,0,0,0,1105.48,956.315Zm-1.03.149c-0.21-.016-0.24.008-0.08,0.075s0.17,0.117.03,0.15l0.4-.1-0.3.075Zm7.19-1.567c0.13-.033.19-0.083,0.17-0.15l-0.1.026-0.1.024,0.03,0.1h0Zm-0.81.2-0.02-.1c-0.08-.049-0.12-0.041-0.1.025a0.087,0.087,0,0,0,.12.075h0Zm-1.92.423c-0.06.05-.1,0.042-0.11-0.025C1108.93,955.461,1108.97,955.469,1108.91,955.519Zm-0.31.024c-0.12.1-.19,0.117-0.2,0.05s-0.05-.057-0.1.026c0.01,0.066.03,0.079,0.06,0.037s0.04-.028.06,0.037l0.2-.05Zm-1.42.3c-0.08-.017-0.11.01-0.09,0.075h0C1107.23,955.884,1107.25,955.86,1107.18,955.842Zm7.17-1.617,0.2-.05c0.07-.017.06-0.049-0.03-0.1a0.312,0.312,0,0,0-.17.15h0Zm-0.81.2c0.14-.034.16-0.074,0.08-0.125-0.13.033-.2,0.068-0.19,0.1s-0.02.058-.09,0.075Zm-0.8.2,0.1-.024c-0.01-.066-0.09-0.084-0.22-0.051a0.084,0.084,0,0,0,.12.075h0Zm-0.5.125c-0.02-.066-0.09-0.084-0.23-0.05,0.02,0.067.1,0.083,0.23,0.05h0Zm-1.71.423c0.14-.034.16-0.058,0.09-0.075s-0.11.009-.09,0.075c-0.22-.016-0.27,0-0.15.037s0.17,0.03.15-.037h0Zm-1.32.273c0.03,0.1.1,0.1,0.22,0C1109.26,955.345,1109.19,955.345,1109.21,955.444Zm-8.52,2.166,0.2-.05c-0.02-.065-0.09-0.066-0.22,0s-0.12.083,0.02,0.05h0Zm5.62-1.394,0.2-.05-0.2.05h0Zm3.74-.821-0.02-.1c-0.07.016-.09,0.092-0.05,0.225a0.09,0.09,0,0,0,.07-0.125h0Zm5.2-.97a0.605,0.605,0,0,0-.45-0.1c0.03,0.135.1,0.172,0.19,0.113a0.232,0.232,0,0,1,.26-0.013h0Zm-0.51.075c0.16,0.067.15,0.051-.02-0.05C1114.57,954.417,1114.58,954.433,1114.74,954.5Zm1.62-.348c-0.1-.117-0.14-0.108-0.1.025s0.06,0.125.1-.025h0Zm-0.53.025c0.02,0.067.09,0.083,0.22,0.05-0.01-.066-0.09-0.084-0.22-0.05h0Zm2.26-.348q-0.045-.2-0.18-0.063c-0.08.092-.13,0.105-0.15,0.037-0.13.034-.13,0.051,0.01,0.05a1.451,1.451,0,0,0,.32-0.024h0Zm-1.33.223,0.1-.025-0.1.025h0Zm-13.04,3.336c0.07-.017.06-0.05-0.02-0.1a0.1,0.1,0,0,0-.08.124l0.1-.024h0Zm-0.85.211c0.05,0.059.09,0.013,0.12-.137l0.03,0.1a0.446,0.446,0,0,0,.24-0.112,0.264,0.264,0,0,1,.26-0.012,0.4,0.4,0,0,0-.49-0.038,3.606,3.606,0,0,1-.54.186l0.13,0.075c-0.12.1-.14,0.159-0.07,0.175s0.1-.04.07-0.175C1102.74,957.562,1102.82,957.542,1102.87,957.6Zm-0.48.012-0.6.15c-0.03.15,0.02,0.17,0.17,0.062s0.21-.087.18,0.063c0.15-.25.24-0.34,0.25-0.275h0Zm3.24-.7-0.1.025-0.12-.075,0.02,0.1,0.03,0.1c0.05-.082.08-0.107,0.08-0.075s0.04,0.009.09-.074h0Zm-0.75.186c0.05,0.059.13,0.039,0.25-.062-0.02-.065-0.13-0.075-0.33-0.025s-0.25.133-.15,0.25C1104.75,957.1,1104.83,957.044,1104.88,957.1Zm-0.4.1c0.1-.025.01-0.037-0.28-0.038l0.05,0.2A0.364,0.364,0,0,1,1104.48,957.2Zm-0.33.187-0.03-.1c-0.03-.132-0.09-0.153-0.17-0.062a0.276,0.276,0,0,0-.1.237Zm5.2-1.394c0.02,0.068.01,0.1-.03,0.112s-0.04.047-.02,0.113c0.07-.017.08-0.091,0.05-0.225h0Zm-0.27.225a0.154,0.154,0,0,1-.13-0.126,0.091,0.091,0,0,0-.08.125l0.03,0.1,0.1-.024h0C1109.13,956.26,1109.16,956.236,1109.08,956.219Zm-0.54.186c0.24-.058.31-0.144,0.21-0.262a0.7,0.7,0,0,0-.29.125,0.379,0.379,0,0,1-.32.025C1108.18,956.427,1108.31,956.463,1108.54,956.405Zm-0.47.012c0.03,0.135.07,0.126,0.1-.024C1108.07,956.276,1108.03,956.285,1108.07,956.417Zm-0.1.025c-0.02-.065-0.06-0.074-0.12-0.025s-0.09.042-.11-0.025c0.02,0.067.09,0.083,0.23,0.05h0Zm-0.49.175c0.14,0,.2-0.033.19-0.1a0.306,0.306,0,0,1-.23-0.05C1107.32,956.567,1107.34,956.617,1107.48,956.617Zm-0.62.1c-0.23-.083-0.34-0.075-0.31.025s0.13,0.092.31-.025h0Zm-0.4.1c0.02,0.068-.06.051-0.23-0.05,0.02,0.067.1,0.084,0.23,0.05h0Zm-3.11.772c0.03,0.134.06,0.126,0.1-.025C1103.35,957.446,1103.31,957.454,1103.35,957.587Zm6.75-1.567c0.02,0.067.09,0.083,0.23,0.05a0.186,0.186,0,0,0,.15-0.25,0.414,0.414,0,0,0-.24.112,0.194,0.194,0,0,1-.14.088h0Zm-0.4.1c0.03,0.134.07,0.126,0.1-.025C1109.7,955.978,1109.67,955.986,1109.7,956.119Zm2.03-.4,0.2-.05a0.411,0.411,0,0,0,.28-0.174,0.483,0.483,0,0,0-.48.224h0Zm-0.22-.05c0.03,0.134.1,0.118,0.2-.05C1111.54,955.522,1111.47,955.538,1111.51,955.671Zm-0.1.025c-0.27.066-.4,0.134-0.38,0.2,0.27-.066.39-0.131,0.38-0.2h0Zm-0.71.175c0.04,0.133.1,0.117,0.2-.051C1110.74,955.721,1110.67,955.737,1110.7,955.871Zm-0.1.024c0.04,0.134.07,0.126,0.1-.024C1110.61,955.754,1110.57,955.762,1110.6,955.9Zm-13.9,3.5c-0.02.043-.04,0.03-0.06-0.037a0.1,0.1,0,0,0-.08.125l0.2-.05C1096.75,959.364,1096.73,959.351,1096.7,959.392Zm16.42-4.119-0.11.025,0.03,0.1,0.02,0.1,0.21-.05-0.03-.1a0.084,0.084,0,0,1-.12-0.075h0Zm-13.44,3.435-0.1.025-0.23-.05c0.02,0.067.13,0.074,0.33,0.025h0Zm-0.81.2c0.04,0.134.07,0.126,0.1-.025C1098.88,958.766,1098.84,958.774,1098.87,958.907Zm-0.8.2c-0.02-.066-0.11-0.1-0.29-0.088s-0.21.072-.11,0.188c0.12-.1.18-0.133,0.19-0.1s0.08,0.033.21,0h0Zm-0.83.1c-0.13.032-.16,0.075-0.07,0.124l0.3-.074C1097.45,959.19,1097.38,959.172,1097.24,959.206Zm17.71-4.281-0.5.124c0.1,0.118.17,0.134,0.22,0.05s0.16-.074.33,0.026Zm-0.48.224c-0.1-.116-0.17-0.132-0.23-0.05a0.242,0.242,0,0,1-.3.075l-0.1.025c-0.16-.1-0.23-0.083-0.2.05s0.1,0.117.2-.05l0.1-.025a0.837,0.837,0,0,0,.53-0.025h0Zm-0.83.1-0.2.049,0.03,0.1,0.2-.05Zm-1,.248,0.2-.05-0.2.05h0Zm-11.44,2.887c-0.06.051-.1,0.043-0.12-0.025C1101.22,958.326,1101.26,958.335,1101.2,958.384Zm-1.22.249h0Zm14.99-3.608c0.17,0.1.24,0.085,0.2-.05s-0.09-.116-0.2.05h0Zm1.12-.224c0.03,0.1.06,0.108,0.11,0.025C1116.1,954.71,1116.07,954.7,1116.09,954.8Zm1.22-.249c-0.02-.065-0.06-0.074-0.11-0.025s-0.03.058,0.11,0.025h0Zm3.94-.87c-0.15-.033-0.17-0.029-0.05.012s0.14,0.038.05-.012h0Zm1.51-.374c-0.15-.032-0.22,0-0.19.1s0.09,0.068.19-.1h0Zm-36.83,5.412c0.16,0.1.2,0.093,0.1-.024s-0.14-.108-0.1.024h0Zm-0.73.5c-0.04-.132.05-0.224,0.25-0.274,0.03,0.134-.05.225-0.25,0.274h0Zm5.82-1.443c0.19-.115.28-0.121,0.27-0.012s-0.1.113-.27,0.012h0Zm-1.78.548c-0.2.05-.31,0.041-0.33-0.026,0.21-.049.31-0.04,0.33,0.026h0Zm-0.39.15c-0.02-.1.01-0.125,0.09-0.076C1088.91,958.549,1088.88,958.574,1088.85,958.474Zm-1.75.7,0.05,0.2-0.2.05c-0.16-.1-0.11-0.184.15-0.25h0Zm4.41-.72q-0.24-.1.06-0.175Q1091.75,958.551,1091.51,958.451Zm-1.72.373c-0.03-.133,0-0.141.1-0.025C1089.86,958.95,1089.82,958.958,1089.79,958.824Zm1.41-.349c0.1-.166.17-0.182,0.2-0.05s-0.03.151-.2,0.05h0Zm-0.2.05c-0.04-.132.03-0.149,0.2-0.05C1091.1,958.643,1091.03,958.66,1091,958.525Zm-1.49.474-0.1.024-0.02-.1,0.1-.025Zm1.65-.249c-0.03-.1.01-0.091,0.11,0.025C1091.22,958.859,1091.18,958.85,1091.16,958.75Zm-0.47.274a0.589,0.589,0,0,0-.41.05,1.329,1.329,0,0,1-.29.124,0.3,0.3,0,0,1,.18-0.149,0.308,0.308,0,0,0,.17-0.15,0.388,0.388,0,0,0,.35.125h0Zm0.42,0.163c-0.13-.075-0.08-0.1.14-0.087C1091.28,959.234,1091.23,959.262,1091.11,959.187Zm2.22-.285c0.05,0.2.01,0.316-.13,0.349-0.01-.065-0.09-0.083-0.22-0.05a0.3,0.3,0,0,0-.18.15c-0.03-.133-0.16-0.137-0.38-0.013s-0.27.105-.17-0.062c0.02,0.067.1,0.063,0.26-.012a0.275,0.275,0,0,0,.22-0.213c0.13-.033.2-0.032,0.21,0s0.08,0.033.21,0c-0.01-.066.05-0.117,0.18-0.15h0Zm6.4-1.268,0.03,0.1-0.03-.1h0Zm-1.28.424,0.03,0.1c-0.14.033-.21,0.017-0.23-0.05s0.04-.116.18-0.149h0Zm-0.59.2c-0.06.05-.1,0.042-0.11-0.026C1097.88,958.2,1097.92,958.207,1097.86,958.257Zm1.9-.523c-0.12.1-.18,0.134-0.19,0.1s0.05-.067.19-0.1h0Zm-0.29.124c-0.03-.1.01-0.091,0.11,0.026C1099.53,957.967,1099.49,957.959,1099.47,957.858Zm-0.59.2a0.1,0.1,0,0,1-.13-0.075l0.2-.05A0.09,0.09,0,0,1,1098.88,958.058Zm-1.32.273c-0.08-.016-0.05-0.041.09-0.074C1097.66,958.324,1097.63,958.349,1097.56,958.331Zm-2.7.723-0.13-.076,0.13,0.076h0Zm-1.53.7c-0.04-.133.14-0.211,0.52-0.236a6.436,6.436,0,0,0,.68-0.062l-1.2.3h0Zm2.95-.359c-0.08-.158-0.1-0.171-0.07-0.038C1096.33,959.537,1096.35,959.55,1096.28,959.392Z" transform="translate(-1084.03 -944.656)"/>
</svg>
