<svg xmlns="http://www.w3.org/2000/svg" width="50.344" height="15.782" viewBox="0 0 50.344 15.782">
  <metadata><?xpacket begin="﻿" id="W5M0MpCehiHzreSzNTczkc9d"?>
<x:xmpmeta xmlns:x="adobe:ns:meta/" x:xmptk="Adobe XMP Core 5.6-c140 79.160451, 2017/05/06-01:08:21        ">
   <rdf:RDF xmlns:rdf="http://www.w3.org/1999/02/22-rdf-syntax-ns#">
      <rdf:Description rdf:about=""/>
   </rdf:RDF>
</x:xmpmeta>
                                                                                                    
                                                                                                    
                                                                                                    
                                                                                                    
                                                                                                    
                                                                                                    
                                                                                                    
                                                                                                    
                                                                                                    
                                                                                                    
                                                                                                    
                                                                                                    
                                                                                                    
                                                                                                    
                                                                                                    
                                                                                                    
                                                                                                    
                                                                                                    
                                                                                                    
                                                                                                    
                           
<?xpacket end="w"?></metadata>
<defs>
    <style>
      .cls-1 {
        fill: #53c2ea;
        fill-rule: evenodd;
      }
    </style>
  </defs>
  <path id="_" class="cls-1" d="M517.067,959.444a0.976,0.976,0,0,0,.266.649l0.025-.1c0.1,0.168.112,0.259,0.038,0.275s-0.055.076,0.063,0.175a0.581,0.581,0,0,0,.387-0.7,1.537,1.537,0,0,0-.341-0.774c0.217-.016.333,0.013,0.351,0.087a0.778,0.778,0,0,0,.1.237,1.62,1.62,0,0,0-.756-1.036,12.75,12.75,0,0,0-1.433-.885,6.852,6.852,0,0,0-2.074-1.1q-1.371-.5-2.525-1-4.6-1.67-9.81-3.014t-10.573-2.513q-5.363-1.17-10.585-2.251t-9.694-2.4a2.334,2.334,0,0,0-.955-0.449q0.027,0.751-.476.2l-0.05.2-0.3-.075a2.469,2.469,0,0,0-.775.975,5.181,5.181,0,0,1-.146,1.448,6.341,6.341,0,0,0-.17,1.55,3.609,3.609,0,0,0,1.513,2.071,4.373,4.373,0,0,1,1.637,2,5.9,5.9,0,0,0,2.892,1.671,25.964,25.964,0,0,0,3.943.871,4.06,4.06,0,0,1,1.493.211,2.432,2.432,0,0,0,1.418.086l0.3,0.075a29.985,29.985,0,0,1,5.183.382q2.823,0.436,5.888.981a8.451,8.451,0,0,0,2.4.435,5.274,5.274,0,0,1,2.348.636q0.751-.026,1.858.035a2.364,2.364,0,0,1,1.532.486c0.033-.133.091-0.153,0.175-0.063a0.492,0.492,0,0,0,.227.162,0.168,0.168,0,0,0,.1-0.187c-0.018-.074.008-0.1,0.075-0.087l0.955,0.236a5.045,5.045,0,0,0,.979.137l0.076,0.124a0.536,0.536,0,0,0,.452.112,0.548,0.548,0,0,1,.452.112c0.033-.132.082-0.191,0.15-0.175a0.091,0.091,0,0,1,.125-0.075c0.066,0.017.024,0.043-.125,0.075l-0.025.1a1.386,1.386,0,0,1,.678.275c0.033-.133.1-0.188,0.2-0.163a0.358,0.358,0,0,1,.226.162c0.05-.2.107-0.292,0.175-0.275l0.025-.1c0.2,0.05.292,0.109,0.276,0.175l-0.3-.075a0.912,0.912,0,0,0,.44.374c0.193,0.085.3,0.06,0.339-.075-0.119-.1-0.157-0.161-0.114-0.188a0.4,0.4,0,0,0,.112-0.237,2.414,2.414,0,0,0-.954-0.236,1.646,1.646,0,0,1-.93-0.336c-0.033.134-.084,0.191-0.15,0.174a1.178,1.178,0,0,0-.779-0.3,1.892,1.892,0,0,1-.979-0.349,0.575,0.575,0,0,1-.728-0.074,0.51,0.51,0,0,0-.6-0.15c-0.1-.166.069-0.211,0.514-0.138a1.183,1.183,0,0,1,.817.362,1.7,1.7,0,0,1,.953.024,2.3,2.3,0,0,1,.955.449,0.183,0.183,0,0,1,.251-0.151c-0.017.068-.009,0.1,0.025,0.113s0.042,0.047.026,0.112a4.135,4.135,0,0,1,1.632.3,4.087,4.087,0,0,0,1.632.3,3.853,3.853,0,0,0-1.432-.461,3.8,3.8,0,0,1-1.432-.461c-0.135-.034-0.2-0.032-0.213,0s-0.047.042-.113,0.025c-0.035-.149-0.2-0.208-0.49-0.174s-0.423-.015-0.389-0.15c-0.034.135-.127,0.147-0.276,0.039s-0.286-.212-0.4-0.312c0.1,0.167.02,0.2-.238,0.1a5.542,5.542,0,0,0-.59-0.2l0.1,0.025,0.2,0.05c0.082-.049.091-0.083,0.025-0.1s-0.084-.09-0.051-0.225c0.066,0.016.1,0.042,0.088,0.075s0.021,0.058.088,0.075a1,1,0,0,1,.565.087,5.467,5.467,0,0,0,.741.237q0.148-.175.3,0.074a0.3,0.3,0,0,1,.051.225c0.15-.033.2-0.092,0.15-0.175s-0.009-.109.126-0.075c0.066,0.016.083,0.092,0.05,0.224a0.632,0.632,0,0,1,.9.224,0.181,0.181,0,0,1,.25-0.149l1,0.248a1.019,1.019,0,0,1,.653.374c0.033-.133.083-0.191,0.15-0.175a0.713,0.713,0,0,0,.691.225c0.359-.017.556,0.05,0.591,0.2q-0.027-.326.275-0.25a1.16,1.16,0,0,0,.527.025,2.661,2.661,0,0,0-1-.249l-0.049.2,0.049-.2c0.017-.066-0.014-0.091-0.088-0.076s-0.1-.04-0.063-0.174c0.468,0.116.9,0.241,1.293,0.373a5.944,5.944,0,0,0,1.319.274,8.625,8.625,0,0,0-1.759-.648l-1.708-.423a6.831,6.831,0,0,0-1.344-.386,3.737,3.737,0,0,1-1.042-.311,1.288,1.288,0,0,1,.753-0.026,0.857,0.857,0,0,1,.553.349,3.527,3.527,0,0,1,1.481.261q0.828,0.312,1.307.536a0.263,0.263,0,0,1,.162-0.225c0.074-.016.1,0.043,0.064,0.175a1.1,1.1,0,0,1,.578.249c0.033-.132.082-0.191,0.15-0.175-0.034.135-.017,0.208,0.051,0.225,0.049-.2.14-0.212,0.276-0.038s0.217,0.2.251,0.062a1.42,1.42,0,0,0-.378-0.411,2.631,2.631,0,0,0-.829-0.311c-0.034.133,0.059,0.191,0.276,0.174s0.31,0.042.277,0.174c0.166-.1.226-0.05,0.176,0.15-0.016.067-.076,0.018-0.176-0.15a0.252,0.252,0,0,1-.3-0.074,0.426,0.426,0,0,0-.4-0.1c0.1-.116.082-0.191-0.051-0.224a0.329,0.329,0,0,1-.252-0.275,15.1,15.1,0,0,0,1.583.5,5.33,5.33,0,0,1,1.357.548,0.3,0.3,0,0,0,.262-0.2c0.025-.1-0.03-0.166-0.163-0.2l-0.126.075a0.092,0.092,0,0,1,.126-0.075,0.306,0.306,0,0,0-.051-0.225,0.381,0.381,0,0,1-.351.125,2.8,2.8,0,0,0-.955-0.449,2.037,2.037,0,0,1-.855-0.424,4.514,4.514,0,0,1,1.306.324,10.122,10.122,0,0,0,1.382.448c-0.135-.033-0.16-0.074-0.076-0.125,0.586,0.217,1.037.4,1.357,0.548s0.728,0.359,1.232.624a1.857,1.857,0,0,0-.818-0.574,3.787,3.787,0,0,1-.943-0.5,0.17,0.17,0,0,0,.1-0.188c-0.018-.074.008-0.1,0.075-0.088a0.3,0.3,0,0,1,.063.175,0.35,0.35,0,0,0,.164.2c0.167-.1.326-0.026,0.478,0.224a0.171,0.171,0,0,0,.1-0.188c-0.019-.074.007-0.1,0.075-0.087,0.184,0.116.225,0.233,0.126,0.349,0.15-.032.217-0.016,0.2,0.05s0.041,0.116.176,0.15c0.033-.133.083-0.192,0.15-0.175L515,958.771c0.166-.1.266-0.074,0.3,0.075a0.2,0.2,0,0,0,.277.175c0.1-.116,0-0.213-0.3-0.287s-0.354-.229-0.153-0.462a0.427,0.427,0,0,0,.365.249,0.606,0.606,0,0,1,.39.149,0.183,0.183,0,0,0-.152-0.249l-0.1-.025a0.091,0.091,0,0,1-.076-0.125c0.133,0.033.192,0.084,0.176,0.15,0.1-.116.083-0.192-0.051-0.225s-0.151-.107-0.051-0.224a0.886,0.886,0,0,0,.391.361,0.319,0.319,0,0,1,.164.412,0.6,0.6,0,0,1,.377.2l0.05-.2a0.8,0.8,0,0,1-.277-0.174c-0.119-.1-0.1-0.167.049-0.2,0.134,0.033.193,0.085,0.177,0.15a0.286,0.286,0,0,0,.051.225h0A0.942,0.942,0,0,1,517.067,959.444Zm-47.514-14.37c-0.033.134-.068,0.126-0.1-0.025C469.552,944.933,469.586,944.941,469.553,945.074Zm-0.213,0c-0.025.1-.1,0.1-0.213,0C469.293,944.975,469.365,944.974,469.34,945.074Zm30.829,7.691c-0.017.067-.125,0.075-0.326,0.025,0.016-.065.125-0.075,0.326-0.025h0Zm4.346,1.395c0.016-.066.053-0.075,0.113-0.025s0.02,0.058-.113.025h0Zm1.783,0.547,0.025-.1,0.1,0.025-0.025.1-0.1-.025h0Zm0.98,0.35,0.05-.2c0.149-.032.209,0.018,0.176,0.151s-0.109.149-.226,0.05h0Zm0.578,0.036c0,0.143-.051.13-0.151-0.037C507.8,954.939,507.854,954.952,507.856,955.093Zm0.527,0.237q-0.126.076-.276-0.174C508.374,955.221,508.465,955.281,508.383,955.33ZM472.745,946.4a0.092,0.092,0,0,1-.126.075c0.017-.065.037-0.078,0.063-0.037s0.046,0.029.063-.038h0Zm24.413,6.473c0.133,0.033.2,0.067,0.188,0.1s-0.071,0-.188-0.1h0Zm0.464,0.061a0.391,0.391,0,0,0,.364.038,0.352,0.352,0,0,1-.276.037,0.841,0.841,0,0,0-.376.013C497.367,952.885,497.463,952.855,497.622,952.929Zm1.545,0.436-0.4-.1c-0.051-.082.008-0.105,0.176-0.063s0.242,0.1.226,0.162l0.1,0.025,0.225-.05c0.017-.066-0.1-0.025-0.351.125l0.025-.1h0Zm0.54,0.187c-0.109.01-.155-0.02-0.138-0.087l0.326-.025A0.177,0.177,0,0,1,499.707,953.552Zm1.093,0.324a3.829,3.829,0,0,0-.729-0.287,4.451,4.451,0,0,0,.716.125,1.632,1.632,0,0,1,.766.349A1.466,1.466,0,0,1,500.8,953.876Zm0.854,0.212c0.016-.066.108-0.08,0.276-0.038a1.387,1.387,0,0,1,.389.149c0.092,0.059.1,0.079,0.038,0.063l-0.7-.174h0Zm2.411,0.6c-0.135-.034-0.164-0.058-0.088-0.075s0.1,0.009.088,0.075h0Zm0.076,0.124a0.092,0.092,0,0,1,.125-0.075,0.093,0.093,0,0,1,.076.125l-0.2-.05h0Zm1,0.249c0.167-.1.234-0.083,0.2,0.05s-0.1.118-.2-0.05h0Zm0.98,0.35,0.025-.1,0.1,0.024-0.024.1-0.1-.024h0Zm8.238,2.04c0.15-.032.213,0,0.188,0.1s-0.088.068-.188-0.1h0Zm0.276,0.175h0Zm-0.049.2-0.1-.024c0.017-.066.041-0.1,0.076-0.088s0.041,0.047.025,0.112h0Zm0.83,0.525a0.293,0.293,0,0,1-.152-0.25c0.017-.066-0.075-0.125-0.276-0.175a0.237,0.237,0,0,1,.263.012,0.821,0.821,0,0,0,.239.113l-0.074.3h0Zm-4.923-1.432c0,0.142-.051.13-0.151-0.038C510.445,956.761,510.5,956.773,510.5,956.915Zm1.557,0.386,0.1,0.024-0.025.1-0.1-.025ZM471.267,947.2c-0.017.067-.092,0.083-0.226,0.05-0.017.067,0.058,0.051,0.226-.05h0Zm0.477,0.224-0.1-.025c0.016-.065.04-0.1,0.075-0.087s0.042,0.047.025,0.112h0Zm40.738,10.305c-0.068-.017-0.076-0.125-0.026-0.325a0.411,0.411,0,0,1,.238.112,0.2,0.2,0,0,0,.139.087l-0.05.2c-0.1.118-.164,0.084-0.188-0.1s-0.064-.174-0.113.026h0Zm0.929,0.124a0.28,0.28,0,0,1,.376-0.013c0.084,0.092.05,0.155-.1,0.187q-0.153-.249-0.276-0.174h0Zm-0.5-.125,0.2,0.05,0.1,0.025c-0.034.134-.15,0.175-0.351,0.125h0Zm2.009,0.5-0.1-.025c0.016-.065.049-0.057,0.1,0.025h0Zm-31.342-7.553a0.524,0.524,0,0,1,.275-0.038,0.275,0.275,0,0,1,.228.375,0.547,0.547,0,0,0-.528-0.237,0.47,0.47,0,0,1-.5-0.336c0.167,0.183.268,0.208,0.3,0.074C483.381,950.658,483.457,950.712,483.575,950.669Zm0.7,0.174c-0.035-.008-0.042-0.045-0.026-0.112a0.188,0.188,0,0,1,.251.062,0.187,0.187,0,0,0,.252.062l-0.025.1c0.133,0.033.2,0.067,0.188,0.1s-0.071,0-.188-0.1l-0.125.075a0.26,0.26,0,0,0-.3-0.075h0C484.319,950.89,484.311,950.852,484.278,950.843Zm-2.336-.685,0.1,0.025-0.049.2-0.1-.024,0.025-.1Zm18.372,4.605c0.008-.033.069,0,0.188,0.1C500.367,954.829,500.305,954.8,500.314,954.763Zm-19.929-4.778,0.126-.075a0.183,0.183,0,0,1,.151.25l-0.3-.075c0.082-.049.09-0.084,0.024-0.1h0Zm0.929,0.124a0.267,0.267,0,0,0,.239.112c0.041-.025.046,0.03,0.013,0.163-0.2-.05-0.285-0.141-0.252-0.275h0Zm1.357,0.549c-0.135-.034-0.152-0.108-0.051-0.225a0.429,0.429,0,0,1,.277.174C482.88,950.674,482.805,950.69,482.671,950.658Zm11.477,2.737c0.017-.066.041-0.1,0.075-0.088s0.042,0.047.026,0.113Zm7.158,1.667c-0.168.1-.288,0.087-0.364-0.037s0.044-.112.364,0.037h0Zm1.683,0.523h0Zm0.715,0.124c0.058,0.05.021,0.058-.112,0.025C503.608,955.669,503.645,955.66,503.7,955.709Zm4.007,1.046c-0.034.134-.068,0.125-0.1-0.025C507.709,956.613,507.743,956.622,507.711,956.755Zm0.226,0.161c0.049-.057.016-0.136-0.1-0.236a1.768,1.768,0,0,0,.678.274c-0.067-.017-0.117.042-0.15,0.175q-0.2-.473-0.3-0.075Q507.861,957,507.937,956.916Zm-27.25-6.856c0.166-.1.216-0.087,0.15,0.037s-0.118.113-.15-0.037h0Zm23.684,5.973a0.174,0.174,0,0,0-.189-0.1,0.362,0.362,0,0,1-.289-0.124c0.016-.065.125-0.075,0.326-0.025s0.25,0.133.152,0.249h0Zm0.828,0.1-0.3-.075,0.2,0.049,0.1,0.026h0Zm0.1,0.024c-0.033.135-.067,0.126-0.1-0.024C505.3,956.016,505.332,956.024,505.3,956.157Zm3.68,0.859c0.242,0.025.28,0.088,0.113,0.187l-0.6-.149A0.894,0.894,0,0,1,508.979,957.016Zm-2.8-.535c0.166-.1.238-0.1,0.213,0s-0.1.1-.213,0h0Zm3.089,0.872,0.05-.2c0.066,0.016.084,0.092,0.051,0.225,0.133,0.032.146,0.054,0.038,0.062s-0.122-.012-0.038-0.062l-0.1-.025h0Zm2.738,0.572c0.166-.1.238-0.1,0.213,0s-0.1.1-.213,0h0Zm-4.935-1.17c0.057,0.051.1,0.042,0.112-.025C507.049,956.7,507.011,956.706,507.071,956.755Zm-14.881-3.633c0.016-.066.054-0.075,0.113-0.025a0.168,0.168,0,0,0,.213,0c-0.016.067-.125,0.075-0.326,0.025h0Zm9.644,2.389,0.1,0.025q-0.026.1-.075,0.087c-0.035-.008-0.042-0.045-0.026-0.112h0ZM488.85,952.4c-0.033.134-.068,0.125-0.1-0.026C488.848,952.259,488.883,952.268,488.85,952.4Zm17.179,4.255c0.1-.116.133-0.108,0.1,0.025s-0.067.126-.1-0.025h0ZM483.9,951.281c0.133,0.033.209,0.017,0.226-.05,0.116,0.1.108,0.133-.025,0.1s-0.21-.016-0.226.05C483.759,951.282,483.768,951.247,483.9,951.281Zm22.025,5.35-0.1-.025,0.1,0.025h0Zm2.211,0.548c0.2,0.05.162,0.058-.113,0.025s-0.24-.041.113-0.025h0Zm-23.507-5.612a0.343,0.343,0,0,1-.227-0.162c-0.016.067,0.125,0.068,0.427,0C484.8,951.54,484.732,951.593,484.632,951.567Zm24.989,6.085a1.715,1.715,0,0,1-1.206-.3,1.212,1.212,0,0,1,.565.086,2.59,2.59,0,0,0,.641.212h0Zm-26.635-6.545c-0.059-.05-0.1-0.041-0.112.025,0.016-.066.09-0.083,0.225-0.05C483.083,951.149,483.044,951.158,482.986,951.107Zm14.278,3.484c-0.017.067-.038,0.08-0.063,0.037s-0.046-.028-0.062.038a0.091,0.091,0,0,1,.125-0.075h0Zm1.909,0.473-0.326.026c0.016-.066.125-0.076,0.326-0.026h0Zm11.4,3.037a1.194,1.194,0,0,1-.754-0.4,5.2,5.2,0,0,0,.98.349,1.8,1.8,0,0,1,.678.274c0.15-.032.233-0.012,0.251,0.062s0.067,0.088.151,0.037a0.207,0.207,0,0,1-.4-0.1Zm-8.314-2.166-0.1-.025,0.1,0.025h0Zm0.4,0.1,0.1,0.025,0.1,0.025Zm3.141,1.1c-0.052-.083-0.022-0.128.087-0.138s0.137-.054.087-0.137a0.183,0.183,0,0,0,.152.25,0.334,0.334,0,0,1,.252.274,0.784,0.784,0,0,1-.277-0.174,0.258,0.258,0,0,0-.3-0.075h0Zm1.757,0.223c0.016-.065.125-0.075,0.326-0.025a0.78,0.78,0,0,1-.326.025h0Zm0.114,0.187a0.239,0.239,0,0,1,.288-0.087l-0.074.3C507.689,957.7,507.616,957.633,507.676,957.541Zm0.388-.062a0.259,0.259,0,0,1,.3.074,0.129,0.129,0,0,0,.2.05c0.116,0.1.041,0.116-.226,0.05l-0.05.2c-0.2-.05-0.264-0.082-0.188-0.1a0.26,0.26,0,0,0,.162-0.224ZM505,956.932c-0.119-.1-0.093-0.129.075-0.088s0.142,0.072-.075.088h0Zm0.464,0.062c-0.026-.041-0.046-0.028-0.062.038a0.092,0.092,0,0,1,.125-0.076C505.511,957.024,505.49,957.037,505.465,956.994Zm1.382,0.449c-0.109.009-.147-0.053-0.113-0.188a1.812,1.812,0,0,1,.678.275c0.033,0.15-.026.17-0.175,0.062s-0.235-.128-0.252-0.062C507,957.464,506.956,957.434,506.847,957.443Zm-0.239-.113c-0.135-.033-0.172-0.024-0.113.026s0.1,0.041.113-.026h0Zm0.955,0.237q0,0.213-.151-0.037C507.511,957.413,507.561,957.425,507.563,957.567Zm0.829,0.311c-0.033.135-.068,0.126-0.1-0.025C508.39,957.737,508.425,957.745,508.392,957.878Zm0.125-.075,0.2,0.05-0.025.1-0.2-.05Zm0.3,0.075c0.066,0.016.1,0.042,0.089,0.075s0.053,0.066.188,0.1l-0.1-.025a0.093,0.093,0,0,0-.126.075,0.09,0.09,0,0,1-.075-0.124Zm-8.211-1.716c-0.269-.067-0.394-0.133-0.377-0.2a0.776,0.776,0,0,0,.439.162,0.482,0.482,0,0,1,.34.137Zm2.085,0.623a0.772,0.772,0,0,1,.627.048,1.893,1.893,0,0,1,.766.137,7.093,7.093,0,0,0,.741.237,0.7,0.7,0,0,1-.678-0.062,1.924,1.924,0,0,0-.853-0.211l0.024-.1a1.076,1.076,0,0,1-.627-0.048h0Zm-5.3-1.42-0.3-.075,0.3,0.075h0Zm5.1,1.37a0.823,0.823,0,0,1-.478-0.225c0.017-.065.141-0.071,0.377-0.013s0.267,0.137.1,0.238h0ZM490.185,953.9l-0.2-.05,0.2,0.05h0Zm13.538,3.46c0.016-.066.125-0.075,0.326-0.025-0.017.067-.125,0.075-0.326,0.025h0Zm1.041,0.1a5.271,5.271,0,0,0,.591.2,0.832,0.832,0,0,1-.678-0.062,0.829,0.829,0,0,0-.553-0.137A0.719,0.719,0,0,1,504.764,957.457Zm0.805,0.411c-0.043.026-.047-0.028-0.013-0.162,0.2,0.05.25,0.133,0.151,0.25C505.656,957.873,505.61,957.844,505.569,957.868Zm0.866,0.162a0.726,0.726,0,0,0-.314-0.025,0.709,0.709,0,0,1-.314-0.025,0.143,0.143,0,0,1,.239-0.1,0.578,0.578,0,0,0,.414.05l-0.025.1,0.1,0.024a0.81,0.81,0,0,1,.464.063,1.111,1.111,0,0,0,.339.137,0.393,0.393,0,0,1-.364-0.037,0.711,0.711,0,0,0-.464-0.062l0.025-.1-0.1-.024h0Zm1.181,0.4c0.016-.066.09-0.084,0.225-0.051,0.017-.065-0.059-0.049-0.225.051h0Zm-30.489-7.342,0.024-.1,0.4,0.1c-0.016.068-.159,0.067-0.426,0h0Zm30.339,7.517,0.125-.076-0.05.2h0a0.09,0.09,0,0,1-.075-0.124h0Zm-32.637-7.927c-0.092-.058-0.089-0.145.012-0.262,0.066,0.016.1,0.042,0.088,0.075s0.021,0.058.088,0.074C474.984,950.7,474.921,950.736,474.829,950.677Zm25.254,6.31c0.217-.016.3,0.074,0.252,0.274a0.845,0.845,0,0,0-.277-0.175Zm0.867,0.373c-0.127-.066-0.115-0.116.037-0.149Q501.137,957.462,500.95,957.36Zm-4.835-1.144a0.182,0.182,0,0,1-.151-0.25c0.184,0.117.233,0.2,0.151,0.25h0Zm1.155,0.073c0.117,0.1.122,0.155,0.013,0.163s-0.139.055-.087,0.137a0.09,0.09,0,0,1-.076-0.125,0.092,0.092,0,0,0-.125.076,0.091,0.091,0,0,1-.076-0.125l0.125-.075c0.1,0.167.176,0.149,0.226-.051h0Zm1.457,0.574a0.131,0.131,0,0,0-.2-0.05c-0.084.05-.109,0.009-0.075-0.125,0.266,0.066.358,0.125,0.276,0.175h0Zm2.75,0.522q0.212,0-.037.15c0.167,0.184.26,0.242,0.276,0.174q-0.3-.073-0.276-0.174C501.321,957.436,501.333,957.386,501.477,957.385Zm-7.295-1.542-0.076-.125c0.033-.133.074-0.158,0.125-0.075a0.42,0.42,0,0,0,.277.174c-0.017.068-.071,0.072-0.163,0.013s-0.081-.036.038,0.063l-0.2-.05h0Zm1.117,0.224q-0.313-.024-0.164-0.2l0.2,0.05h0C495.521,956.034,495.508,956.084,495.3,956.067Zm0.414,0.049,0.126-.075c0.116,0.1.137,0.158,0.063,0.175a0.17,0.17,0,0,1-.189-0.1h0Zm0.8,0.2a0.257,0.257,0,0,0-.3-0.074,0.142,0.142,0,0,1,.238-0.1,0.688,0.688,0,0,1,.264.225A0.129,0.129,0,0,1,496.517,956.315Zm1.029,0.149c0.218-.016.247,0.008,0.089,0.075s-0.173.117-.038,0.15l-0.4-.1,0.3,0.075Zm-7.182-1.567c-0.135-.033-0.193-0.083-0.176-0.15l0.1,0.026,0.1,0.024-0.025.1h0Zm0.8,0.2,0.025-.1c0.082-.049.116-0.041,0.1,0.025a0.091,0.091,0,0,1-.125.075h0Zm1.921,0.423c0.057,0.05.1,0.042,0.113-.025C493.067,955.461,493.03,955.469,493.089,955.519Zm0.314,0.024c0.117,0.1.184,0.117,0.2,0.05s0.049-.057.1,0.026c-0.016.066-.038,0.079-0.062,0.037s-0.047-.028-0.063.037l-0.2-.05Zm1.419,0.3c0.074-.017.1,0.01,0.088,0.075h0C494.775,955.884,494.746,955.86,494.822,955.842Zm-7.17-1.617-0.2-.05c-0.068-.017-0.06-0.049.025-0.1a0.306,0.306,0,0,1,.176.15h0Zm0.8,0.2c-0.135-.034-0.159-0.074-0.075-0.125,0.133,0.033.2,0.068,0.188,0.1s0.021,0.058.088,0.075Zm0.8,0.2-0.1-.024c0.016-.066.09-0.084,0.225-0.051a0.091,0.091,0,0,1-.125.075h0Zm0.5,0.125c0.017-.066.091-0.084,0.226-0.05-0.017.067-.092,0.083-0.226,0.05h0Zm1.708,0.423c-0.135-.034-0.164-0.058-0.088-0.075s0.105,0.009.088,0.075c0.217-.016.268,0,0.151,0.037s-0.167.03-.151-0.037h0Zm1.319,0.273c-0.025.1-.1,0.1-0.214,0C492.741,955.345,492.812,955.345,492.788,955.444Zm8.526,2.166-0.2-.05c0.016-.065.086-0.066,0.213,0s0.121,0.083-.013.05h0Zm-5.625-1.394-0.2-.05,0.2,0.05h0Zm-3.742-.821,0.025-.1c0.065,0.016.083,0.092,0.051,0.225a0.091,0.091,0,0,1-.076-0.125h0Zm-5.2-.97a0.6,0.6,0,0,1,.451-0.1c-0.033.135-.095,0.172-0.187,0.113a0.239,0.239,0,0,0-.264-0.013h0Zm0.515,0.075c-0.16.067-.156,0.051,0.012-0.05C487.426,954.417,487.422,954.433,487.264,954.5Zm-1.62-.348c0.1-.117.133-0.108,0.1,0.025s-0.067.125-.1-0.025h0Zm0.527,0.025c-0.017.067-.092,0.083-0.226,0.05,0.017-.066.091-0.084,0.226-0.05h0Zm-2.26-.348c0.033-.133.092-0.154,0.176-0.063s0.134,0.105.151,0.037c0.133,0.034.129,0.051-.013,0.05a1.406,1.406,0,0,1-.314-0.024h0Zm1.331,0.223-0.1-.025,0.1,0.025h0Zm13.035,3.336c-0.067-.017-0.059-0.05.025-0.1a0.092,0.092,0,0,1,.076.124l-0.1-.024h0Zm0.854,0.211c-0.051.059-.093,0.013-0.126-0.137l-0.025.1a0.4,0.4,0,0,1-.238-0.112,0.278,0.278,0,0,0-.264-0.012,0.4,0.4,0,0,1,.489-0.038,4.088,4.088,0,0,0,.541.186l-0.126.075c0.117,0.1.138,0.159,0.064,0.175s-0.1-.04-0.064-0.175C499.264,957.562,499.18,957.542,499.131,957.6Zm0.477,0.012,0.6,0.15c0.032,0.15-.026.17-0.176,0.062s-0.21-.087-0.175.063c-0.152-.25-0.236-0.34-0.252-0.275h0Zm-3.239-.7,0.1,0.025,0.125-.075-0.025.1-0.024.1c-0.052-.082-0.08-0.107-0.088-0.075s-0.039.009-.088-0.074h0Zm0.753,0.186c-0.051.059-.134,0.039-0.251-0.062,0.016-.065.125-0.075,0.326-0.025s0.25,0.133.151,0.25C497.246,957.1,497.171,957.044,497.122,957.1Zm0.4,0.1c-0.1-.025-0.009-0.037.276-0.038l-0.05.2A0.358,0.358,0,0,0,497.524,957.2Zm0.327,0.187,0.024-.1c0.033-.132.092-0.153,0.176-0.062a0.278,0.278,0,0,1,.1.237Zm-5.2-1.394c-0.016.068-.009,0.1,0.026,0.112s0.042,0.047.025,0.113c-0.067-.017-0.084-0.091-0.051-0.225h0Zm0.265,0.225a0.165,0.165,0,0,0,.137-0.126,0.093,0.093,0,0,1,.076.125l-0.025.1-0.1-.024h0C492.869,956.26,492.84,956.236,492.916,956.219Zm0.54,0.186c-0.236-.058-0.3-0.144-0.2-0.262a0.721,0.721,0,0,1,.289.125,0.362,0.362,0,0,0,.314.025C493.824,956.427,493.69,956.463,493.456,956.405Zm0.477,0.012c-0.034.135-.068,0.126-0.1-0.024C493.931,956.276,493.966,956.285,493.933,956.417Zm0.1,0.025c0.016-.065.054-0.074,0.113-0.025s0.1,0.042.113-.025c-0.017.067-.092,0.083-0.226,0.05h0Zm0.49,0.175c-0.143,0-.205-0.033-0.188-0.1a0.3,0.3,0,0,0,.225-0.05C494.677,956.567,494.665,956.617,494.523,956.617Zm0.615,0.1q0.351-.125.314,0.025c-0.025.1-.129,0.092-0.314-0.025h0Zm0.4,0.1c-0.017.068,0.057,0.051,0.226-.05-0.017.067-.093,0.084-0.226,0.05h0Zm3.114,0.772c-0.033.134-.067,0.126-0.1-0.025C498.653,957.446,498.687,957.454,498.654,957.587ZM491.9,956.02c-0.017.067-.092,0.083-0.226,0.05a0.182,0.182,0,0,1-.151-0.25,0.417,0.417,0,0,1,.238.112,0.207,0.207,0,0,0,.139.088h0Zm0.4,0.1c-0.034.134-.068,0.126-0.1-0.025C492.3,955.978,492.333,955.986,492.3,956.119Zm-2.034-.4-0.2-.05a0.414,0.414,0,0,1-.277-0.174,0.477,0.477,0,0,1,.478.224h0Zm0.225-.05c-0.033.134-.1,0.118-0.2-0.05C490.458,955.522,490.525,955.538,490.492,955.671Zm0.1,0.025c0.267,0.066.393,0.134,0.377,0.2-0.269-.066-0.394-0.131-0.377-0.2h0Zm0.7,0.175c-0.033.133-.1,0.117-0.2-0.051C491.261,955.721,491.329,955.737,491.3,955.871Zm0.1,0.024c-0.033.134-.067,0.126-0.1-0.024C491.4,955.754,491.429,955.762,491.4,955.9Zm13.9,3.5c0.024,0.043.046,0.03,0.062-.037a0.092,0.092,0,0,1,.076.125l-0.2-.05C505.251,959.364,505.271,959.351,505.3,959.392Zm-16.413-4.119,0.1,0.025-0.024.1-0.025.1-0.2-.05,0.025-.1a0.092,0.092,0,0,0,.125-0.075h0Zm13.437,3.435,0.1,0.025,0.226-.05c-0.017.067-.125,0.074-0.326,0.025h0Zm0.8,0.2c-0.033.134-.067,0.126-0.1-0.025C503.124,958.766,503.158,958.774,503.125,958.907Zm0.8,0.2c0.016-.066.112-0.1,0.289-0.088s0.212,0.072.113,0.188c-0.119-.1-0.18-0.133-0.189-0.1s-0.079.033-.213,0h0Zm0.829,0.1c0.133,0.032.158,0.075,0.075,0.124l-0.3-.074C504.548,959.19,504.623,959.172,504.758,959.206Zm-17.706-4.281,0.5,0.124c-0.1.118-.176,0.134-0.226,0.05s-0.159-.074-0.326.026Zm0.477,0.224c0.1-.116.175-0.132,0.226-0.05a0.253,0.253,0,0,0,.3.075l0.1,0.025c0.166-.1.234-0.083,0.2,0.05s-0.1.117-.2-0.05l-0.1-.025a0.827,0.827,0,0,1-.527-0.025h0Zm0.829,0.1,0.2,0.049-0.025.1-0.2-.05Zm1,0.248-0.2-.05,0.2,0.05h0Zm11.441,2.887c0.057,0.051.1,0.043,0.112-.025C500.78,958.326,500.743,958.335,500.8,958.384Zm1.217,0.249h0Zm-14.993-3.608c-0.168.1-.234,0.085-0.2-0.05s0.1-.116.2,0.05h0Zm-1.117-.224c-0.025.1-.064,0.108-0.113,0.025C485.9,954.71,485.934,954.7,485.91,954.8Zm-1.218-.249c0.016-.065.053-0.074,0.113-0.025s0.02,0.058-.113.025h0Zm-3.943-.87c0.15-.033.167-0.029,0.05,0.012s-0.134.038-.05-0.012h0Zm-1.507-.374c0.15-.032.213,0,0.189,0.1s-0.089.068-.189-0.1h0Zm36.832,5.412c-0.169.1-.2,0.093-0.1-0.024s0.133-.108.1,0.024h0Zm0.729,0.5c0.033-.132-0.051-0.224-0.252-0.274q-0.049.2,0.252,0.274h0Zm-5.827-1.443c-0.185-.115-0.273-0.121-0.263-0.012s0.095,0.113.263,0.012h0Zm1.784,0.548c0.2,0.05.309,0.041,0.326-.026-0.2-.049-0.31-0.04-0.326.026h0Zm0.389,0.15c0.025-.1-0.006-0.125-0.088-0.076C513.094,958.549,513.124,958.574,513.149,958.474Zm1.747,0.7-0.05.2,0.2,0.05c0.166-.1.115-0.184-0.151-0.25h0Zm-4.407-.72c0.158-.067.138-0.125-0.063-0.175C510.309,958.459,510.329,958.517,510.489,958.451Zm1.72,0.373c0.033-.133,0-0.141-0.1-0.025C512.142,958.95,512.176,958.958,512.209,958.824Zm-1.406-.349c-0.1-.166-0.168-0.182-0.2-0.05s0.033,0.151.2,0.05h0Zm0.2,0.05c0.033-.132-0.035-0.149-0.2-0.05C510.9,958.643,510.971,958.66,511,958.525ZM512.486,959l0.1,0.024,0.025-.1-0.1-.025Zm-1.645-.249c0.025-.1-0.014-0.091-0.112.025C510.778,958.859,510.817,958.85,510.841,958.75Zm0.466,0.274a0.6,0.6,0,0,1,.414.05,1.268,1.268,0,0,0,.289.124,0.311,0.311,0,0,0-.176-0.149,0.291,0.291,0,0,1-.176-0.15,0.376,0.376,0,0,1-.351.125h0Zm-0.414.163c0.125-.075.079-0.1-0.138-0.087C510.721,959.234,510.768,959.262,510.893,959.187Zm-2.222-.285c-0.049.2-.008,0.316,0.127,0.349,0.016-.065.091-0.083,0.226-0.05a0.309,0.309,0,0,1,.176.15c0.033-.133.157-0.137,0.376-0.013s0.276,0.105.176-.062c-0.017.067-.106,0.063-0.264-0.012s-0.231-.145-0.214-0.213c-0.135-.033-0.2-0.032-0.213,0s-0.08.033-.213,0c0.016-.066-0.043-0.117-0.177-0.15h0Zm-6.4-1.268-0.025.1,0.025-.1h0Zm1.281,0.424-0.025.1c0.134,0.033.21,0.017,0.226-.05s-0.043-.116-0.176-0.149h0Zm0.591,0.2c0.057,0.05.1,0.042,0.112-.026C504.117,958.2,504.08,958.207,504.14,958.257Zm-1.9-.523c0.117,0.1.18,0.134,0.189,0.1s-0.055-.067-0.189-0.1h0Zm0.289,0.124c0.025-.1-0.014-0.091-0.113.026C502.469,957.967,502.507,957.959,502.532,957.858Zm0.591,0.2a0.092,0.092,0,0,0,.125-0.075l-0.2-.05A0.091,0.091,0,0,0,503.123,958.058Zm1.318,0.273c0.074-.016.045-0.041-0.088-0.074C504.336,958.324,504.365,958.349,504.441,958.331Zm2.7,0.723,0.125-.076-0.125.076h0Zm1.533,0.7c0.033-.133-0.144-0.211-0.528-0.236a6.713,6.713,0,0,1-.677-0.062l1.2,0.3h0Zm-2.95-.359c0.074-.158.1-0.171,0.063-0.038Q505.612,959.629,505.724,959.392Z" transform="translate(-467.625 -944.656)"/>
</svg>
