<svg width="20" height="20" viewBox="0 0 20 20" fill="none" xmlns="http://www.w3.org/2000/svg">
<rect width="20" height="20" rx="10" fill="white"/>
<path d="M15.6637 8.24296C15.672 8.34139 15.672 8.43985 15.672 8.53828C15.672 11.5406 12.9912 15 8.09139 15C6.58186 15 5.17958 14.6273 4 13.9805C4.21448 14.0016 4.42067 14.0086 4.6434 14.0086C5.88894 14.0086 7.03554 13.65 7.95115 13.0383C6.77983 13.0172 5.79822 12.3633 5.46002 11.4633C5.62501 11.4844 5.78997 11.4984 5.96321 11.4984C6.20242 11.4984 6.44165 11.4703 6.66435 11.4211C5.44354 11.2101 4.5279 10.2961 4.5279 9.19218V9.16407C4.88258 9.33282 5.29505 9.43829 5.73221 9.45233C5.01456 9.04451 4.5444 8.34843 4.5444 7.56092C4.5444 7.13905 4.67636 6.75234 4.90734 6.41483C6.2189 7.79296 8.19036 8.69294 10.401 8.7914C10.3598 8.62265 10.335 8.44688 10.335 8.2711C10.335 7.01952 11.5228 6 12.9994 6C13.7665 6 14.4594 6.27422 14.9461 6.71719C15.5482 6.61875 16.1256 6.4289 16.6371 6.16875C16.4391 6.69611 16.0184 7.13908 15.4657 7.42031C16.0019 7.37111 16.5216 7.24452 17 7.06876C16.6371 7.51874 16.1834 7.9195 15.6637 8.24296V8.24296Z" fill="#333333"/>
</svg>
